<svg xmlns="http://www.w3.org/2000/svg" width="291" height="178" viewBox="0 0 291 178" fill="none"><path d="M263.254 62.3197C248.507 48.8954 230.859 39.7818 213.366 30.9825C193.764 21.1077 173.28 11.2659 152.283 5.18879C145.282 3.13757 138.154 1.59224 130.95 0.563713C99.2946 -3.8628 68.9978 18.5759 47.0802 39.9679C38.3181 48.5026 30.5593 52.4832 23.1454 62.3197C17.745 69.5056 8.37738 80.9173 8.37738 95.6579C5.83113 116.124 10.0891 140.894 23.1448 154.807C36.1354 168.603 42.3563 170.545 59.8565 176.834C91.0313 176.834 126.514 176.834 161.175 176.834C163.056 176.597 182.886 177.091 184.762 176.834C205.381 176.215 214.805 176.834 242.394 176.834C268.441 177.446 293.859 114.838 279.621 83.9889C275.726 75.5538 270.009 68.4631 263.254 62.3197Z" fill="#F7F7F7"></path><path d="M52.6728 36.8914H17.0992V82.2303H52.6728V36.8914Z" stroke="#BC9683" stroke-linecap="round" stroke-linejoin="round"></path><path d="M50.5053 39.4097H19.275V79.7197H50.5053V39.4097Z" stroke="#BC9683" stroke-linecap="round" stroke-linejoin="round"></path><path d="M41.7264 50.8494H28.054V68.2722H41.7264V50.8494Z" stroke="#BC9683" stroke-linecap="round" stroke-linejoin="round"></path><path d="M261.802 115.863C261.802 115.863 257.303 113.364 256.97 119.024C256.637 124.685 255.802 161.503 255.802 161.503" stroke="#373A33" stroke-width="2" stroke-linecap="round" stroke-linejoin="round"></path><path d="M254.62 119.525C254.62 119.525 258.28 127.688 256.622 161.002" stroke="#373A33" stroke-width="2" stroke-linecap="round" stroke-linejoin="round"></path><path d="M258.24 117.001C258.24 117.001 256.516 118.099 255.538 116.844C254.561 115.589 256.201 113.269 254.755 112.281C253.309 111.293 250.809 112.801 250.809 112.801C250.809 112.801 252.731 113.364 252.668 114.414C252.606 115.464 251.68 115.878 251.57 115.402C251.46 114.927 250.527 112.632 248.964 113.595C248.514 113.861 248.123 114.215 247.814 114.637C247.505 115.058 247.285 115.537 247.166 116.046C247.166 116.046 250.802 115.658 251.021 117.027C251.241 118.395 249.531 116.789 248.03 116.701C246.529 116.613 245.16 116.833 245.259 117.74C245.292 118.543 245.245 119.347 245.116 120.14C245.937 119.456 246.977 119.09 248.045 119.109C249.696 119.204 249.634 120.254 248.133 120.166C246.632 120.078 245.343 121.505 245.343 121.505C245.343 121.505 246.713 123.843 248.451 124.999C250.19 126.155 250.816 125.731 251.014 124.849C251.212 123.967 250.75 121.673 251.801 121.736C252.852 121.798 250.062 125.698 251.402 125.929C252.742 126.159 253.822 125.768 254.173 124.886L254.539 124.004C254.539 124.004 254.071 121.721 254.276 120.828C254.481 119.935 254.726 120.854 254.964 121.926C255.202 122.998 255.352 125.563 255.809 125.438C256.267 125.314 257.735 123.444 258.079 122.712C258.423 121.981 256.146 119.738 256.172 119.288C256.197 118.838 257.955 119.694 258.229 120.162C258.428 120.518 258.608 120.885 258.767 121.26C258.767 121.26 259.865 120.572 259.836 118.465C259.807 116.357 258.24 117.001 258.24 117.001Z" fill="#E9CE8D"></path><path d="M249.513 121.944C250.637 120.557 252.288 118.68 253.675 117.784" stroke="#373A33" stroke-linecap="round" stroke-linejoin="round"></path><path d="M248.21 123.635C248.21 123.635 248.499 123.233 248.967 122.632" stroke="#373A33" stroke-linecap="round" stroke-linejoin="round"></path><path d="M264.375 112.556C264.375 112.556 264.306 115.029 262.373 115.15C260.44 115.27 259.247 112.054 257.27 112.826C255.293 113.598 255.103 117.129 255.103 117.129C255.103 117.129 256.977 115.589 257.987 116.368C258.998 117.147 258.764 118.344 258.218 118.154C257.673 117.963 254.733 117.308 254.634 119.526C254.593 120.157 254.681 120.79 254.892 121.387C255.102 121.984 255.432 122.532 255.861 122.998C255.861 122.998 257.951 119.098 259.474 119.807C260.997 120.517 258.218 121.136 257.105 122.577C255.992 124.019 255.275 125.537 256.26 126.06C257.086 126.574 257.859 127.17 258.566 127.838C258.566 127.838 258.302 125.797 259.525 124.213C260.748 122.628 261.754 123.404 260.645 124.846C259.536 126.287 260.085 128.548 260.085 128.548C260.085 128.548 263.358 128.775 265.701 127.817C268.043 126.858 268.058 125.954 267.304 125.142C266.55 124.33 263.943 123.243 264.719 122.233C265.496 121.223 267.502 126.675 268.647 125.49C269.793 124.304 270.134 122.961 269.493 122.006L268.849 121.051C268.849 121.051 266.242 119.954 265.488 119.152C264.734 118.351 265.821 118.717 267.055 119.207C268.289 119.698 270.957 121.297 271.148 120.755C271.338 120.213 270.463 117.462 269.965 116.628C269.467 115.794 265.668 116.533 265.236 116.2C264.804 115.867 266.857 114.692 267.513 114.736C268.168 114.78 268.977 114.937 268.977 114.937C268.977 114.937 269.035 113.375 266.905 111.963C264.774 110.551 264.375 112.556 264.375 112.556Z" fill="#B4A272"></path><path d="M263.376 124.659C262.754 122.588 261.999 119.654 262.051 117.656" stroke="#373A33" stroke-linecap="round" stroke-linejoin="round"></path><path d="M264.181 127.111C264.181 127.111 263.976 126.551 263.694 125.673" stroke="#373A33" stroke-linecap="round" stroke-linejoin="round"></path><path d="M261.89 121.439C261.89 121.439 258.782 122.493 257.782 123.788" stroke="#373A33" stroke-linecap="round" stroke-linejoin="round"></path><path d="M243.638 129.021C243.638 129.021 253.47 135.519 253.302 160.669" stroke="#373A33" stroke-width="2" stroke-linecap="round" stroke-linejoin="round"></path><path d="M255.762 127.304C255.762 127.304 255.447 130.151 253.199 130.11C250.952 130.07 249.883 126.239 247.533 126.946C245.182 127.652 244.622 131.702 244.622 131.702C244.622 131.702 246.932 130.103 248.027 131.095C249.121 132.086 248.733 133.447 248.122 133.177C247.511 132.906 244.183 131.874 243.857 134.424C243.751 135.15 243.794 135.89 243.983 136.599C244.172 137.307 244.503 137.971 244.955 138.548C244.955 138.548 247.738 134.241 249.425 135.204C251.113 136.166 247.851 136.62 246.431 138.178C245.01 139.737 244.048 141.424 245.124 142.119C246.031 142.788 246.868 143.548 247.62 144.387C247.62 144.387 247.507 142.005 249.085 140.293C250.663 138.581 251.735 139.561 250.318 141.127C248.902 142.693 249.323 145.349 249.323 145.349C249.323 145.349 253.082 145.92 255.875 145.042C258.668 144.164 258.767 143.118 257.973 142.115C257.179 141.113 254.276 139.605 255.268 138.515C256.26 137.424 258.057 143.901 259.492 142.642C260.927 141.383 261.447 139.865 260.795 138.701L260.111 137.538C260.111 137.538 257.208 136.034 256.413 135.028C255.619 134.022 256.838 134.56 258.215 135.24C259.591 135.921 262.523 138.021 262.79 137.41C263.058 136.799 262.307 133.557 261.828 132.536C261.348 131.515 256.878 132.024 256.41 131.6C255.941 131.175 258.427 130.012 259.177 130.136C259.736 130.229 260.29 130.351 260.836 130.502C260.836 130.502 261.048 128.702 258.723 126.872C256.399 125.043 255.762 127.304 255.762 127.304Z" fill="#B4A272"></path><path d="M253.47 141.175C252.943 138.731 252.354 135.273 252.595 132.972" stroke="#373A33" stroke-linecap="round" stroke-linejoin="round"></path><path d="M254.166 144.081C254.166 144.081 253.983 143.415 253.737 142.375" stroke="#373A33" stroke-linecap="round" stroke-linejoin="round"></path><path d="M247.47 148.844C247.47 148.844 253.803 153.673 254.469 160.837L253.155 136.85" stroke="#373A33" stroke-width="2" stroke-linecap="round" stroke-linejoin="round"></path><path d="M262.801 145.346C254.469 143.846 254.469 160.837 254.469 160.837" stroke="#373A33" stroke-width="2" stroke-linecap="round" stroke-linejoin="round"></path><path d="M255.469 160.669C255.469 160.669 250.637 125.523 264.621 125.523" stroke="#373A33" stroke-width="2" stroke-linecap="round" stroke-linejoin="round"></path><path d="M259.627 144.333C258.489 143.056 256.069 143.056 254.649 146.327C253.228 149.598 254.506 149.027 254.506 149.027C254.506 149.027 257.208 148.175 258.899 147.604C260.59 147.033 262.882 145.613 263.024 146.47C263.167 147.326 261.886 148.175 260.319 148.46C258.752 148.745 254.63 149.88 255.055 150.736C255.48 151.592 256.479 154.146 256.479 154.146C257.695 153.115 258.978 152.165 260.319 151.303C262.172 150.165 263.31 150.593 262.314 151.87C261.319 153.147 258.471 154.574 259.042 156.279C259.613 157.984 263.039 160.121 263.039 160.121C263.039 160.121 263.464 156.564 264.463 155.426C265.463 154.288 265.459 155.569 265.173 157.559C265.03 158.407 264.935 159.262 264.888 160.121L268.871 161.54C269.522 160.549 270.235 159.6 271.005 158.697L271.737 157.988C271.737 157.988 268.607 155.284 268.464 153.597C268.322 151.91 270.598 153.597 271.309 153.882C272.019 154.168 273.157 156.154 273.157 156.154C273.157 156.154 273.871 152.887 274.014 151.764L274.157 150.626C274.157 150.626 271.166 149.488 270.027 149.488C268.889 149.488 268.322 150.341 268.322 149.203C268.322 148.065 269.46 147.355 270.741 147.498C271.901 147.69 273.043 147.975 274.157 148.35C274.157 148.35 275.01 147.637 274.724 145.504C274.439 143.371 273.728 143.371 272.022 143.941C270.317 144.512 269.174 145.771 267.893 145.771C266.612 145.771 267.326 144.208 268.179 143.78C269.032 143.352 271.166 142.5 271.594 142.357C272.022 142.214 269.317 140.224 267.893 139.942C266.469 139.66 264.628 140.674 264.763 142.075C265.034 145.046 260.766 145.632 259.627 144.333Z" fill="#E9CE8D"></path><path d="M268.787 158.975C268.831 159.403 268.86 159.835 268.875 160.264" stroke="#373A33" stroke-linecap="round" stroke-linejoin="round"></path><path d="M265.927 148.767C267.178 151.585 268.078 154.545 268.607 157.581" stroke="#373A33" stroke-linecap="round" stroke-linejoin="round"></path><path d="M265.415 147.625C264.712 146.111 264.181 145.189 264.181 145.189C264.951 144.818 265.589 144.222 266.012 143.48C266.345 142.807 266.833 142.223 267.436 141.775" stroke="#373A33" stroke-linecap="round" stroke-linejoin="round"></path><path d="M273.289 132.094C271.741 131.179 270.027 131.157 269.185 130.191C268.343 129.225 269.994 128.728 270.877 129.094C271.759 129.46 273.805 130.51 274.19 130.74C274.574 130.971 274.31 127.623 273.593 126.35C272.875 125.076 270.91 124.355 269.932 125.384C267.864 127.557 264.635 124.707 264.855 123.009C265.074 121.311 263.489 119.486 260.096 120.558C256.702 121.63 257.962 122.219 257.962 122.219C257.962 122.219 260.378 123.701 261.93 124.619C263.482 125.537 266.045 126.32 265.492 126.986C264.939 127.652 263.456 127.246 262.215 126.254C260.974 125.263 257.413 122.892 257.047 123.774C256.68 124.656 255.399 127.067 255.399 127.067C256.976 127.308 258.535 127.654 260.067 128.102C262.139 128.75 262.563 129.888 260.945 129.975C259.327 130.063 256.384 128.849 255.454 130.396C254.524 131.944 255.165 135.921 255.165 135.921C255.165 135.921 258.13 133.912 259.642 133.92C261.154 133.927 260.187 134.765 258.496 135.855C257.764 136.304 257.056 136.793 256.377 137.319L257.914 141.259C259.09 141.1 260.275 141.016 261.461 141.007L262.464 141.076C262.464 141.076 262.464 136.942 263.65 135.716C264.836 134.49 265.049 137.326 265.301 138.05C265.554 138.775 264.796 140.937 264.796 140.937C264.796 140.937 267.725 139.331 268.684 138.694L269.639 138.054C269.639 138.054 268.541 135.054 267.809 134.194C267.077 133.334 266.048 133.462 266.905 132.731C267.761 131.999 269.05 132.365 269.782 133.437C270.395 134.438 270.928 135.487 271.375 136.572C271.375 136.572 272.473 136.752 273.897 135.138C275.321 133.524 274.841 133.005 273.289 132.094ZM259.825 136.645C258.687 136.078 261.388 134.94 261.388 134.94C262.387 134.79 260.963 137.216 259.829 136.638L259.825 136.645ZM261.74 131.337C261.256 131.095 262.71 130.605 262.71 130.605C264.818 130.996 262.23 131.574 261.743 131.329L261.74 131.337Z" fill="#E9CE8D"></path><path d="M259.796 139.536C259.5 139.85 259.197 140.154 258.884 140.447" stroke="#373A33" stroke-linecap="round" stroke-linejoin="round"></path><path d="M265.635 130.685C264.327 133.476 262.681 136.096 260.733 138.486" stroke="#373A33" stroke-linecap="round" stroke-linejoin="round"></path><path d="M266.162 129.551C266.847 128.025 267.194 127.019 267.194 127.019C267.981 127.366 268.855 127.463 269.698 127.297C270.425 127.108 271.187 127.093 271.92 127.253" stroke="#373A33" stroke-linecap="round" stroke-linejoin="round"></path><path d="M251.182 151.793C249.938 151.061 248.558 151.039 247.888 150.26C247.218 149.481 248.536 149.089 249.246 149.386C249.956 149.682 251.6 150.523 251.914 150.706C252.229 150.889 252.01 148.2 251.431 147.187C250.853 146.173 249.271 145.58 248.503 146.411C246.837 148.156 244.238 145.866 244.417 144.497C244.597 143.129 243.319 141.662 240.577 142.525C237.835 143.389 238.86 143.864 238.86 143.864C238.86 143.864 240.804 145.057 242.052 145.793C243.301 146.528 245.347 147.161 244.919 147.699C244.49 148.237 243.282 147.907 242.283 147.106C241.284 146.305 238.417 144.399 238.121 145.108C237.824 145.818 236.799 147.776 236.799 147.776C238.068 147.969 239.323 148.247 240.555 148.606C242.221 149.129 242.561 150.048 241.258 150.117C239.955 150.187 237.597 149.21 236.865 150.454C236.133 151.698 236.635 154.899 236.635 154.899C236.635 154.899 239.021 153.286 240.237 153.29C241.452 153.293 240.676 153.97 239.318 154.848C238.727 155.208 238.156 155.6 237.608 156.023L238.846 159.195C239.792 159.066 240.746 158.998 241.701 158.99L242.51 159.049C242.51 159.049 242.51 155.719 243.466 154.735C244.421 153.751 244.589 156.03 244.791 156.612C244.992 157.193 244.384 158.935 244.384 158.935C244.384 158.935 246.749 157.644 247.514 157.128L248.283 156.615C248.283 156.615 247.397 154.201 246.797 153.509C246.196 152.818 245.376 152.92 246.065 152.32C246.753 151.72 247.789 152.038 248.378 152.891C248.872 153.697 249.302 154.541 249.663 155.415C249.663 155.415 250.545 155.558 251.691 154.259C252.837 152.96 252.423 152.528 251.182 151.793ZM240.347 155.452C239.431 154.995 241.606 154.08 241.606 154.08C242.408 153.966 241.262 155.913 240.343 155.456L240.347 155.452ZM241.891 151.178C241.5 150.984 242.671 150.593 242.671 150.593C244.37 150.922 242.279 151.38 241.891 151.182V151.178Z" fill="#E9CE8D"></path><path d="M240.343 157.786C240.105 158.038 239.86 158.284 239.611 158.518" stroke="#373A33" stroke-linecap="round" stroke-linejoin="round"></path><path d="M245.021 150.666C243.967 152.911 242.642 155.018 241.075 156.941" stroke="#373A33" stroke-linecap="round" stroke-linejoin="round"></path><path d="M245.446 149.751C245.995 148.525 246.277 147.713 246.277 147.713C246.909 147.992 247.612 148.07 248.29 147.936C248.875 147.784 249.487 147.772 250.077 147.9" stroke="#373A33" stroke-linecap="round" stroke-linejoin="round"></path><path d="M246.102 128.311C246.102 128.311 244.535 129.449 243.539 128.311C242.543 127.173 243.967 124.897 242.54 124.045C241.112 123.192 238.842 124.754 238.842 124.754C238.842 124.754 240.691 125.182 240.691 126.178C240.691 127.173 239.838 127.597 239.695 127.173C239.553 126.748 238.557 124.612 237.133 125.607C236.722 125.883 236.372 126.24 236.103 126.656C235.835 127.072 235.653 127.538 235.57 128.025C235.57 128.025 238.981 127.455 239.267 128.735C239.553 130.016 237.843 128.592 236.423 128.592C235.002 128.592 233.717 128.878 233.86 129.73C233.938 130.487 233.938 131.25 233.86 132.006C234.597 131.316 235.557 130.913 236.565 130.868C238.129 130.868 238.129 131.863 236.708 131.863C235.288 131.863 234.146 133.287 234.146 133.287C234.146 133.287 235.57 135.42 237.276 136.415C238.981 137.41 239.553 136.986 239.695 136.13C239.838 135.273 239.267 133.144 240.263 133.144C241.258 133.144 238.842 136.986 240.12 137.125C241.398 137.264 242.397 136.843 242.682 135.987L242.968 135.134C242.968 135.134 242.397 133.001 242.54 132.149C242.682 131.296 242.968 132.149 243.25 133.144C243.532 134.139 243.821 136.558 244.246 136.415C244.67 136.272 245.955 134.425 246.241 133.715C246.526 133.005 244.246 131.011 244.246 130.587C244.246 130.162 245.955 130.868 246.241 131.296C246.447 131.618 246.636 131.95 246.808 132.292C246.808 132.292 247.804 131.582 247.661 129.588C247.518 127.594 246.102 128.311 246.102 128.311Z" fill="#E9CE8D"></path><path d="M238.146 133.466C239.131 132.094 240.588 130.228 241.851 129.306" stroke="#373A33" stroke-linecap="round" stroke-linejoin="round"></path><path d="M236.993 135.135C236.993 135.135 237.246 134.739 237.652 134.146" stroke="#373A33" stroke-linecap="round" stroke-linejoin="round"></path><path d="M260.469 160.168H249.469V175.992H260.469V160.168Z" fill="#8B9E6E" stroke="#373A33" stroke-width="2" stroke-linecap="round" stroke-linejoin="round"></path><path d="M1 176.108H290" stroke="#373A33" stroke-linecap="round" stroke-linejoin="round"></path><path d="M218.513 111.438C216.902 111.709 213.882 113.775 213.878 113.775C213.874 113.775 215.85 115.344 215.988 115.429C217.581 116.391 221.23 117.319 222.807 115.956C223.063 115.722 223.267 115.438 223.405 115.122C223.543 114.805 223.613 114.464 223.61 114.119C223.606 113.773 223.53 113.433 223.386 113.119C223.242 112.805 223.033 112.525 222.773 112.297C221.698 111.292 219.887 111.205 218.513 111.438Z" fill="#E9CE8D"></path><path d="M211.645 103.288C210.221 103.944 208.003 106.515 207.827 106.725C206.352 105.46 204.794 104.293 203.164 103.234C202.216 102.612 201.245 102.016 200.263 101.428C200.75 101.63 201.188 101.81 201.253 101.81C203.045 102.318 206.81 102.256 207.972 100.53C208.157 100.238 208.279 99.9104 208.328 99.5686C208.377 99.2268 208.354 98.8785 208.259 98.5464C208.164 98.2142 208 97.9056 207.777 97.6407C207.555 97.3759 207.279 97.1606 206.967 97.009C205.666 96.3215 203.897 96.7149 202.631 97.2992C201.364 97.8835 199.415 100.045 198.909 100.622C198.525 100.4 198.141 100.175 197.757 99.9573C195.935 98.8994 194.108 97.8568 192.351 96.776C191.729 96.3941 191.134 96.0122 190.535 95.6074C190.969 95.783 191.337 95.932 191.395 95.9473C193.187 96.459 196.952 96.3941 198.11 94.6679C198.295 94.3757 198.417 94.0481 198.466 93.7063C198.515 93.3645 198.492 93.0162 198.397 92.684C198.302 92.3519 198.138 92.0433 197.915 91.7784C197.693 91.5135 197.417 91.2983 197.105 91.1467C195.804 90.4592 194.035 90.8526 192.773 91.4369C191.51 92.0212 189.745 93.9728 189.142 94.6564C188.54 94.2325 187.938 93.8124 187.377 93.3732C186.994 93.0677 186.61 92.8003 186.253 92.4681L185.167 91.5248C184.499 90.8984 183.809 90.2568 183.172 89.6152C182.726 89.1836 182.312 88.7635 181.89 88.3396C182.504 88.7215 183.716 89.4548 183.828 89.5044C185.52 90.2683 189.25 90.7838 190.662 89.2524C190.889 88.9914 191.059 88.6857 191.159 88.3552C191.26 88.0247 191.289 87.6768 191.246 87.3342C191.203 86.9916 191.087 86.6619 190.907 86.3666C190.727 86.0713 190.487 85.8171 190.202 85.6204C189.024 84.742 187.212 84.8566 185.873 85.2385C184.403 85.6624 181.909 87.7706 181.602 88.0379C180.908 87.3352 180.24 86.6478 179.618 85.9871C178.248 84.532 177.059 83.2029 176.072 82.061L174.921 82.8249C175.969 83.9706 177.243 85.3531 178.724 86.854C179.422 87.5682 180.186 88.3205 180.98 89.0843C180.374 89.9403 179.821 90.8332 179.327 91.7577C177.792 91.3758 174.764 91.7386 174.376 91.7883C174.184 90.822 173.993 89.8787 173.858 88.9889C173.54 87.1252 173.294 85.4486 173.091 84.005L171.851 84.8108C172.059 86.1207 172.312 87.5949 172.619 89.2104C172.807 90.1919 173.029 91.2383 173.264 92.3077C172.88 92.4528 169.844 93.6596 168.778 94.7595C167.811 95.7525 166.859 97.2916 167.082 98.739C167.123 99.0817 167.236 99.4119 167.414 99.708C167.592 100.004 167.831 100.26 168.114 100.458C168.398 100.656 168.721 100.793 169.061 100.858C169.402 100.924 169.752 100.918 170.09 100.84C172.108 100.316 173.405 96.7989 173.513 94.9467C173.513 94.8359 173.452 93.6443 173.398 92.892C173.498 93.3274 173.59 93.7551 173.697 94.2019C173.904 95.0918 174.138 95.974 174.384 96.9211C174.518 97.3756 174.656 97.8339 174.795 98.296C174.933 98.7581 175.117 99.2317 175.274 99.7052C175.658 100.794 176.118 101.874 176.598 102.955C175.831 103.139 173.052 103.826 171.936 104.666C170.819 105.506 169.633 106.881 169.653 108.348C169.641 108.693 169.703 109.036 169.834 109.356C169.965 109.675 170.162 109.964 170.413 110.202C170.664 110.441 170.962 110.624 171.288 110.74C171.615 110.856 171.962 110.903 172.308 110.876C174.384 110.662 176.203 107.382 176.59 105.568C176.614 105.453 176.744 104.12 176.798 103.387C177.093 104.036 177.381 104.682 177.699 105.327C178.62 107.191 179.618 109.051 180.581 110.907C180.884 111.476 181.176 112.052 181.468 112.618C181.191 112.679 177.884 113.423 176.637 114.367C175.528 115.207 174.334 116.582 174.353 118.048C174.341 118.393 174.403 118.737 174.534 119.057C174.665 119.377 174.862 119.665 175.112 119.904C175.363 120.143 175.662 120.326 175.988 120.442C176.315 120.558 176.663 120.604 177.009 120.577C179.085 120.363 180.9 117.082 181.287 115.268C181.314 115.131 181.498 113.213 181.521 112.721C182.17 113.977 182.803 115.234 183.379 116.498C184.182 118.208 184.873 119.969 185.447 121.768C185.317 121.799 181.863 122.562 180.585 123.525C179.476 124.365 178.283 125.74 178.283 127.207C178.271 127.551 178.333 127.895 178.464 128.214C178.595 128.534 178.793 128.822 179.043 129.061C179.294 129.299 179.592 129.483 179.919 129.599C180.245 129.715 180.593 129.761 180.938 129.735C183.014 129.521 184.833 126.24 185.221 124.426C185.248 124.285 185.447 122.219 185.455 121.841C185.485 121.944 185.532 122.051 185.562 122.154C186.071 123.965 186.417 125.816 186.598 127.688C186.71 128.723 186.756 129.716 186.783 130.682C186.122 130.758 183.122 131.14 181.875 131.881C180.627 132.622 179.357 133.833 179.188 135.292C179.14 135.633 179.165 135.981 179.26 136.312C179.356 136.643 179.52 136.951 179.742 137.215C179.965 137.479 180.241 137.694 180.552 137.846C180.863 137.997 181.202 138.082 181.548 138.095C183.636 138.095 185.808 135.039 186.391 133.287C186.422 133.191 186.637 132.179 186.775 131.442C186.775 131.877 186.775 132.328 186.775 132.748C186.775 134.318 186.66 135.757 186.552 137.029C186.487 137.751 186.414 138.404 186.337 139.015C185.731 139.428 183.31 141.112 182.561 142.319C181.813 143.526 181.226 145.202 181.763 146.569C181.877 146.895 182.059 147.194 182.297 147.445C182.535 147.697 182.823 147.895 183.143 148.028C183.463 148.161 183.808 148.225 184.155 148.217C184.501 148.208 184.842 148.127 185.155 147.979C187.017 147.031 187.523 143.319 187.224 141.486C187.197 141.326 186.51 138.897 186.479 138.92L186.441 138.943C186.525 138.358 186.61 137.728 186.687 137.033C186.821 135.757 186.959 134.318 187.005 132.744C187.073 131.044 187.041 129.342 186.909 127.646C186.77 125.747 186.462 123.865 185.988 122.02C185.988 121.997 185.988 121.978 185.988 121.955C186.314 122.471 187.274 123.865 187.358 123.979C188.571 125.389 191.748 127.417 193.674 126.599C193.99 126.457 194.273 126.251 194.503 125.993C194.733 125.735 194.907 125.431 195.011 125.102C195.116 124.773 195.15 124.426 195.11 124.083C195.071 123.74 194.96 123.41 194.783 123.112C194.081 121.825 192.385 121.18 191.007 120.974C189.472 120.741 186.18 121.669 185.919 121.738C185.391 119.873 184.738 118.046 183.966 116.269C183.521 115.23 183.041 114.195 182.546 113.168C182.842 113.603 183.11 113.992 183.152 114.042C184.365 115.451 187.542 117.479 189.465 116.662C189.781 116.52 190.064 116.314 190.295 116.056C190.525 115.798 190.699 115.495 190.804 115.166C190.909 114.837 190.943 114.49 190.904 114.147C190.865 113.804 190.754 113.473 190.578 113.175C189.875 111.884 188.179 111.243 186.802 111.033C185.424 110.823 182.581 111.56 181.859 111.762C181.663 111.38 181.475 110.975 181.28 110.586C180.34 108.703 179.396 106.832 178.528 104.964C178.221 104.307 177.945 103.65 177.665 102.99C177.926 103.372 178.152 103.7 178.191 103.753C179.403 105.163 182.581 107.191 184.507 106.377C184.823 106.235 185.106 106.028 185.336 105.769C185.566 105.511 185.739 105.207 185.844 104.878C185.949 104.549 185.982 104.201 185.943 103.858C185.904 103.515 185.792 103.184 185.616 102.887C184.914 101.6 183.218 100.954 181.84 100.748C180.462 100.542 177.911 101.202 177.028 101.443C176.763 100.759 176.495 100.076 176.26 99.4035C176.115 98.9414 175.942 98.506 175.823 98.0325C175.704 97.5589 175.57 97.1044 175.439 96.6461C175.228 95.7563 175.01 94.8435 174.825 93.9728C174.695 93.3694 174.58 92.7889 174.465 92.2045C174.76 92.8653 175.37 94.1408 175.432 94.2401C176.35 95.5927 177.601 96.6891 179.066 97.4252C179.16 97.5805 179.269 97.7263 179.392 97.8606C179.616 98.1237 179.894 98.3367 180.207 98.4858C180.52 98.635 180.861 98.7169 181.208 98.7262C181.554 98.7356 181.899 98.6722 182.22 98.5402C182.54 98.4082 182.829 98.2104 183.068 97.9599C184.461 96.4132 183.594 92.7698 182.654 91.1658C182.6 91.0703 181.886 90.1117 181.422 89.5159C181.748 89.8253 182.059 90.1308 182.396 90.4439C183.064 91.0741 183.747 91.6813 184.476 92.3535L185.581 93.2739C185.946 93.5909 186.368 93.8773 186.763 94.1828C187.696 94.8741 188.682 95.531 189.672 96.1688C189.119 96.7493 187.193 98.8421 186.729 100.156C186.264 101.47 186.05 103.257 186.863 104.479C187.045 104.773 187.288 105.025 187.574 105.219C187.861 105.413 188.185 105.545 188.526 105.607C188.868 105.669 189.218 105.658 189.555 105.576C189.892 105.495 190.207 105.343 190.482 105.132C192.097 103.811 191.794 100.076 191.107 98.3533C191.065 98.2425 190.436 97.0624 190.075 96.417C190.677 96.7989 191.28 97.1808 191.902 97.5398C193.701 98.5939 195.555 99.5983 197.4 100.614C197.965 100.924 198.525 101.241 199.085 101.554C198.889 101.756 196.545 104.196 196.015 105.667C195.555 106.973 195.332 108.768 196.149 109.99C196.332 110.283 196.573 110.535 196.86 110.73C197.146 110.924 197.47 111.056 197.811 111.118C198.152 111.179 198.502 111.169 198.838 111.087C199.175 111.005 199.49 110.854 199.764 110.643C201.38 109.322 201.077 105.587 200.394 103.864C200.34 103.734 199.43 102.031 199.177 101.611C200.413 102.302 201.637 103.001 202.819 103.742C204.416 104.734 205.948 105.827 207.404 107.015C207.312 107.11 204.853 109.643 204.335 111.151C203.874 112.457 203.652 114.252 204.469 115.474C204.651 115.768 204.894 116.02 205.18 116.214C205.467 116.409 205.791 116.541 206.133 116.602C206.474 116.663 206.825 116.652 207.161 116.57C207.498 116.487 207.814 116.335 208.088 116.124C209.699 114.806 209.396 111.071 208.713 109.345C208.659 109.211 207.677 107.382 207.477 107.053L207.738 107.256C209.166 108.487 210.479 109.843 211.664 111.308C212.328 112.11 212.919 112.912 213.475 113.702C212.969 114.126 210.678 116.097 210.048 117.399C209.419 118.701 209.028 120.409 209.707 121.711C209.855 122.023 210.068 122.3 210.331 122.525C210.594 122.75 210.902 122.917 211.234 123.015C211.567 123.114 211.916 123.141 212.26 123.096C212.604 123.051 212.934 122.934 213.23 122.753C214.979 121.608 215.091 117.876 214.599 116.085C214.573 115.986 214.193 115.027 213.905 114.332C214.151 114.695 214.411 115.062 214.642 115.413C215.501 116.731 216.211 117.987 216.829 119.11C217.174 119.748 217.474 120.332 217.75 120.882C217.47 121.558 216.384 124.293 216.43 125.713C216.476 127.134 216.917 128.849 218.118 129.697C218.395 129.905 218.712 130.054 219.05 130.132C219.388 130.211 219.738 130.218 220.079 130.152C220.419 130.087 220.742 129.951 221.027 129.754C221.311 129.556 221.55 129.301 221.729 129.005C222.758 127.199 221.123 123.823 219.857 122.459C219.749 122.341 217.827 120.691 217.815 120.726L217.796 120.768C217.543 120.233 217.263 119.664 216.948 119.045C216.353 117.899 215.67 116.635 214.834 115.295C213.949 113.839 212.979 112.436 211.929 111.094C210.763 109.581 209.463 108.175 208.045 106.893L207.992 106.851C208.548 107.103 210.129 107.752 210.256 107.786C212.048 108.298 215.812 108.233 216.975 106.507C217.16 106.215 217.281 105.887 217.33 105.546C217.38 105.204 217.356 104.855 217.261 104.523C217.167 104.191 217.002 103.882 216.78 103.618C216.557 103.353 216.281 103.137 215.969 102.986C214.68 102.31 212.907 102.715 211.645 103.288Z" fill="#E9CE8D"></path><path d="M187.059 130.976C187.02 130.976 187.826 133.367 187.903 133.512C188.697 135.189 191.226 137.965 193.294 137.713C193.635 137.659 193.961 137.534 194.25 137.347C194.54 137.16 194.786 136.914 194.975 136.627C195.163 136.339 195.289 136.015 195.344 135.676C195.399 135.337 195.381 134.99 195.294 134.658C194.956 133.229 193.494 132.16 192.224 131.602C190.723 130.896 187.059 130.976 187.059 130.976Z" fill="#E9CE8D"></path><path d="M104.709 48.8658C105.86 48.2166 107.545 45.8105 107.545 45.8105C107.545 45.8105 105.626 45.1727 105.496 45.1498C104.03 44.8672 101.025 45.1766 100.216 46.6355C100.088 46.8817 100.014 47.1519 99.9983 47.4285C99.9826 47.7051 100.026 47.9818 100.124 48.2408C100.223 48.4998 100.376 48.7352 100.572 48.9317C100.768 49.1282 101.004 49.2814 101.263 49.3814C102.353 49.8664 103.742 49.4272 104.709 48.8658Z" fill="#E9CE8D"></path><path d="M112.153 53.1086C113.04 52.2188 113.992 49.6714 114.072 49.469C115.534 50.0138 117.032 50.4604 118.554 50.8057C119.441 51.0119 120.342 51.1876 121.24 51.3633C120.818 51.3633 120.438 51.3327 120.385 51.3366C118.892 51.4511 116.079 52.5396 115.684 54.1589C115.627 54.43 115.628 54.7099 115.687 54.9806C115.746 55.2513 115.861 55.5066 116.025 55.7302C116.189 55.9538 116.399 56.1405 116.64 56.2784C116.881 56.4162 117.149 56.5021 117.426 56.5305C118.596 56.6909 119.82 55.9042 120.607 55.1136C121.394 54.3231 122.261 52.1577 122.48 51.5848L123.52 51.7719C125.189 52.0584 126.854 52.341 128.481 52.6656C129.053 52.7802 129.613 52.9138 130.174 53.0475C129.79 53.0475 129.479 53.0246 129.429 53.0475C127.94 53.1583 125.124 54.2467 124.732 55.8698C124.675 56.1407 124.675 56.4205 124.734 56.6912C124.792 56.9619 124.907 57.2173 125.071 57.441C125.235 57.6646 125.444 57.8515 125.685 57.9894C125.926 58.1273 126.194 58.2132 126.471 58.2415C127.645 58.3981 128.865 57.6113 129.656 56.8246C130.446 56.0379 131.225 54.0749 131.486 53.3874C132.058 53.5402 132.637 53.6891 133.174 53.8648C133.558 53.9908 133.907 54.0863 134.272 54.2467L135.354 54.6592C136.029 54.9456 136.732 55.2359 137.384 55.5337C137.841 55.7362 138.27 55.9157 138.704 56.1372C138.136 56.0188 137.019 55.8049 136.924 55.7973C135.431 55.6827 132.484 56.3358 131.847 57.8787C131.748 58.1379 131.706 58.4149 131.723 58.6915C131.739 58.9681 131.815 59.2381 131.943 59.4839C132.072 59.7297 132.251 59.9458 132.469 60.118C132.687 60.2902 132.939 60.4147 133.209 60.4833C134.36 60.8194 135.669 60.2274 136.571 59.5667C137.557 58.8373 138.846 56.5611 139.003 56.2747C139.721 56.6107 140.416 56.9468 141.068 57.2714C142.507 57.9856 143.754 58.6578 144.832 59.2421L145.489 58.3637C144.376 57.7794 143.036 57.1034 141.502 56.3816C140.776 56.0379 139.99 55.6827 139.18 55.3275C139.396 54.5158 139.562 53.6919 139.679 52.8604C140.934 52.7229 143.132 51.6115 143.397 51.4664C143.808 52.1386 144.203 52.7993 144.548 53.4294C145.316 54.7432 145.961 55.9386 146.505 56.9735L147.212 56.0226C146.693 55.0946 146.087 54.0558 145.4 52.9253C144.986 52.2417 144.529 51.5161 144.05 50.7752C144.291 50.5613 146.244 48.8083 146.736 47.6893C147.185 46.6696 147.476 45.2489 146.901 44.2216C146.775 43.9738 146.599 43.7552 146.383 43.58C146.167 43.4048 145.916 43.277 145.647 43.2049C145.378 43.1328 145.096 43.118 144.821 43.1616C144.546 43.2052 144.283 43.3061 144.05 43.4578C142.676 44.4125 142.68 47.4182 143.121 48.8427C143.144 48.9267 143.528 49.8051 143.777 50.3703C143.581 50.0686 143.393 49.7746 143.186 49.469C142.802 48.8542 142.361 48.2546 141.912 47.6091L141.218 46.6887C140.995 46.3756 140.715 46.0739 140.45 45.7607C139.848 45.0503 139.207 44.3629 138.531 43.6793C139.069 43.3279 140.96 42.0447 141.563 41.1014C142.165 40.1581 142.668 38.8099 142.254 37.7024C142.166 37.4396 142.023 37.1982 141.835 36.9939C141.648 36.7895 141.419 36.6267 141.163 36.5162C140.908 36.4056 140.633 36.3497 140.354 36.3521C140.076 36.3544 139.802 36.415 139.548 36.5299C138.048 37.267 137.595 40.2383 137.81 41.7125C137.81 41.8041 138.098 42.8582 138.263 43.4119C137.86 43.0071 137.461 42.5985 137.043 42.2013C135.83 41.0556 134.567 39.9098 133.313 38.7985L132.161 37.7559C132.353 37.6337 134.633 36.1557 135.312 35.1016C135.91 34.1659 136.413 32.8101 136.003 31.6988C135.914 31.4388 135.772 31.2001 135.585 30.9979C135.398 30.7957 135.171 30.6344 134.919 30.5245C134.666 30.4145 134.393 30.3582 134.117 30.3592C133.841 30.3601 133.568 30.4184 133.316 30.5301C131.812 31.2672 131.359 34.2385 131.578 35.7127C131.578 35.8234 131.993 37.3167 132.112 37.6909C131.271 36.9271 130.446 36.1633 129.659 35.3613C128.612 34.2868 127.635 33.1464 126.735 31.947C126.824 31.8897 129.21 30.3583 129.905 29.2737C130.504 28.338 131.006 26.9822 130.596 25.8747C130.507 25.6143 130.366 25.3752 130.179 25.1726C129.993 24.97 129.766 24.8083 129.513 24.698C129.26 24.5876 128.987 24.531 128.711 24.5317C128.435 24.5325 128.162 24.5905 127.91 24.7022C126.405 25.4393 125.956 28.4106 126.171 29.8847C126.171 29.9993 126.616 31.6071 126.716 31.8936C126.662 31.8248 126.601 31.7599 126.547 31.6873C125.666 30.4645 124.895 29.166 124.245 27.8071C123.861 27.0433 123.558 26.3253 123.27 25.6073C123.742 25.3667 125.895 24.2477 126.628 23.3426C127.361 22.4375 127.979 21.181 127.691 20.0391C127.633 19.7682 127.518 19.5126 127.354 19.2889C127.19 19.0651 126.98 18.8783 126.739 18.7407C126.497 18.603 126.229 18.5176 125.952 18.4899C125.675 18.4623 125.396 18.493 125.131 18.5802C123.554 19.1454 122.779 22.0518 122.829 23.545C122.829 23.6252 122.952 24.4425 123.048 25.0383C122.921 24.7099 122.787 24.3776 122.664 24.0606C122.234 22.8729 121.896 21.7691 121.636 20.7762C121.486 20.2148 121.355 19.703 121.252 19.2218C121.593 18.7444 122.948 16.8081 123.17 15.6892C123.393 14.5702 123.366 13.1495 122.583 12.252C122.406 12.0387 122.186 11.8648 121.937 11.7417C121.687 11.6187 121.415 11.5491 121.137 11.5376C120.859 11.5261 120.582 11.5728 120.323 11.6749C120.065 11.7769 119.831 11.9319 119.636 12.1298C118.485 13.3557 119.157 16.2888 119.89 17.5872C119.955 17.698 121.152 19.3364 121.167 19.3135L121.19 19.2829C121.29 19.7488 121.401 20.2415 121.536 20.7838C121.789 21.7806 122.088 22.8996 122.495 24.0988C122.918 25.3995 123.416 26.6747 123.988 27.9179C124.624 29.3093 125.381 30.6422 126.252 31.9012L126.286 31.9432C125.903 31.6453 124.782 30.851 124.69 30.7975C123.382 30.0757 120.431 29.4379 119.206 30.5722C119.008 30.7665 118.853 31.0001 118.752 31.2579C118.65 31.5157 118.604 31.7919 118.617 32.0685C118.63 32.3451 118.701 32.6159 118.825 32.8634C118.95 33.111 119.126 33.3296 119.341 33.5052C120.231 34.269 121.689 34.2958 122.794 34.0704C124.026 33.8184 126.248 32.2144 126.409 32.0845C127.328 33.343 128.33 34.5386 129.41 35.663C130.032 36.3237 130.684 36.9653 131.329 37.6031C130.983 37.3587 130.672 37.141 130.626 37.1143C129.318 36.3886 126.367 35.7508 125.143 36.8889C124.945 37.0833 124.79 37.3169 124.688 37.5747C124.587 37.8325 124.541 38.1087 124.553 38.3853C124.566 38.6618 124.637 38.9327 124.762 39.1802C124.886 39.4277 125.062 39.6464 125.277 39.822C126.167 40.5858 127.626 40.6126 128.731 40.3872C129.836 40.1619 131.747 38.829 132.25 38.4777L133.017 39.2033C134.249 40.349 135.481 41.4948 136.655 42.6749C137.073 43.0835 137.465 43.5036 137.86 43.9199C137.553 43.7022 137.292 43.5189 137.25 43.496C135.945 42.7703 132.99 42.1364 131.766 43.2706C131.568 43.4652 131.414 43.6991 131.312 43.957C131.211 44.215 131.166 44.4912 131.179 44.7678C131.192 45.0444 131.263 45.3152 131.388 45.5626C131.513 45.8099 131.689 46.0284 131.904 46.2037C132.791 46.9675 134.249 46.9943 135.358 46.7689C136.467 46.5436 138.19 45.3406 138.785 44.9167C139.168 45.3559 139.552 45.7951 139.936 46.2419C140.174 46.5474 140.427 46.83 140.65 47.1547L141.321 48.0903C141.728 48.7014 142.15 49.3277 142.53 49.935C142.799 50.3551 143.048 50.7599 143.297 51.1647C142.891 50.7522 142.073 49.9617 142 49.9006C140.93 49.138 139.682 48.6595 138.374 48.5104C138.255 48.4172 138.126 48.3365 137.99 48.2698C137.748 48.1344 137.479 48.0513 137.202 48.0258C136.925 48.0004 136.646 48.0332 136.382 48.1221C136.119 48.2111 135.877 48.3542 135.673 48.5422C135.469 48.7301 135.306 48.9587 135.197 49.2132C134.579 50.7637 136.252 53.2652 137.407 54.2123C137.476 54.2696 138.282 54.7928 138.796 55.1136C138.466 54.9723 138.144 54.8272 137.802 54.6859C137.127 54.3957 136.44 54.1283 135.707 53.8381L134.617 53.4562C134.257 53.3187 133.85 53.2194 133.466 53.0972C132.572 52.8375 131.651 52.6121 130.722 52.4097C130.976 51.8178 131.839 49.7096 131.82 48.5906C131.801 47.4716 131.467 46.0662 130.511 45.375C130.292 45.2044 130.04 45.0815 129.77 45.0143C129.5 44.9472 129.219 44.9372 128.945 44.9851C128.671 45.033 128.411 45.1377 128.18 45.2924C127.949 45.447 127.754 45.6482 127.606 45.8829C126.762 47.3227 128.032 50.0495 129.03 51.1571C129.092 51.2296 129.897 51.9438 130.346 52.3295C129.786 52.2111 129.23 52.0889 128.658 51.9896C127.012 51.6956 125.335 51.4511 123.669 51.1953L122.134 50.9547C122.226 50.7484 123.309 48.2622 123.286 47.0134C123.266 45.902 122.933 44.4889 121.977 43.7977C121.758 43.6271 121.505 43.5042 121.236 43.437C120.966 43.3699 120.685 43.3599 120.411 43.4078C120.137 43.4557 119.876 43.5604 119.646 43.7151C119.415 43.8697 119.22 44.0709 119.072 44.3056C118.228 45.7454 119.498 48.4722 120.492 49.5836C120.569 49.6638 121.728 50.695 122.027 50.9432C120.903 50.7637 119.786 50.5613 118.688 50.3436C117.21 50.0388 115.752 49.6395 114.325 49.1482C114.368 49.0527 115.511 46.4749 115.477 45.184C115.457 44.0727 115.124 42.6596 114.168 41.9683C113.949 41.7977 113.696 41.6749 113.427 41.6077C113.157 41.5405 112.876 41.5306 112.602 41.5785C112.328 41.6264 112.067 41.7311 111.837 41.8857C111.606 42.0404 111.411 42.2416 111.263 42.4763C110.419 43.9161 111.689 46.6429 112.687 47.7543C112.764 47.8383 114.015 48.9458 114.252 49.1291C114.172 49.1024 114.084 49.0795 113.999 49.0489C112.581 48.5167 111.213 47.8597 109.912 47.0859C109.191 46.6696 108.523 46.2266 107.882 45.7874C108.143 45.3253 109.321 43.2095 109.417 42.0562C109.513 40.9028 109.344 39.5088 108.473 38.7145C108.274 38.5209 108.036 38.3711 107.775 38.2748C107.514 38.1785 107.236 38.1379 106.958 38.1555C106.68 38.1732 106.409 38.2487 106.163 38.3772C105.916 38.5057 105.699 38.6844 105.526 38.9016C104.529 40.2421 105.492 43.1026 106.359 44.3018C106.405 44.3705 106.961 44.9854 107.372 45.4475C107.084 45.2451 106.785 45.0389 106.516 44.8365C105.499 44.0727 104.617 43.3356 103.83 42.6634C103.393 42.2815 103.001 41.9187 102.641 41.5826C102.664 40.9983 102.717 38.6381 102.288 37.5802C101.858 36.5223 101.044 35.3537 99.9007 35.052C99.6339 34.9716 99.353 34.9481 99.0764 34.983C98.7998 35.0179 98.5337 35.1104 98.2955 35.2546C98.0572 35.3987 97.8522 35.5912 97.6937 35.8195C97.5352 36.0478 97.4269 36.3068 97.3758 36.5796C97.1071 38.2256 99.2944 40.3147 100.614 40.9906C100.73 41.0479 102.633 41.7545 102.637 41.7277V41.6934C102.978 42.0256 103.347 42.377 103.757 42.7551C104.525 43.4425 105.392 44.2178 106.397 44.9931C107.469 45.844 108.59 46.6309 109.755 47.3494C111.055 48.1613 112.426 48.8566 113.85 49.427L113.899 49.4461C113.412 49.4079 112.038 49.3583 111.935 49.3659C110.442 49.4805 107.625 50.5689 107.234 52.1882C107.177 52.4591 107.177 52.7389 107.235 53.0096C107.294 53.2803 107.408 53.5357 107.572 53.7594C107.736 53.983 107.946 54.1699 108.187 54.3078C108.428 54.4457 108.696 54.5316 108.972 54.5599C110.146 54.6859 111.386 53.8992 112.153 53.1086Z" fill="#E9CE8D"></path><path d="M122.937 25.4778C122.963 25.4778 121.686 23.8929 121.593 23.805C120.527 22.7624 117.848 21.3685 116.375 22.1323C116.132 22.2675 115.92 22.4522 115.754 22.6743C115.588 22.8964 115.47 23.1509 115.41 23.4211C115.349 23.6914 115.346 23.9714 115.401 24.2429C115.456 24.5143 115.568 24.7711 115.73 24.9966C116.379 25.9781 117.779 26.3791 118.896 26.4478C120.212 26.5433 122.933 25.4816 122.937 25.4778Z" fill="#E9CE8D"></path><g opacity="0.1"><path d="M71.1483 104.79C71.202 104.381 70.7262 103.935 70.7262 103.514C70.7262 103.094 71.202 102.644 71.1483 102.239C71.0946 101.834 70.519 101.509 70.4115 101.093C70.3041 100.677 70.6456 100.135 70.4844 99.7527C70.3233 99.3708 69.6901 99.2142 69.479 98.859C69.268 98.5038 69.456 97.8737 69.2028 97.5453C68.9495 97.2168 68.2933 97.2321 67.9978 96.938C67.7023 96.644 67.7215 95.9947 67.3877 95.7388C67.0538 95.4829 66.4322 95.6701 66.0676 95.4639C65.7031 95.2576 65.5573 94.6237 65.1697 94.4633C64.7821 94.3028 64.2295 94.6427 63.8228 94.5358C63.416 94.4289 63.109 93.856 62.6908 93.8025C62.2725 93.7491 61.835 94.2226 61.4091 94.2226C60.9831 94.2226 60.538 93.7682 60.1159 93.8178C59.6938 93.8675 59.3868 94.4442 58.9877 94.5511C58.5886 94.658 58.0207 94.3181 57.637 94.4785C57.2532 94.6389 57.0997 95.2691 56.739 95.4791C56.3783 95.6892 55.749 95.502 55.419 95.7541C55.089 96.0062 55.1043 96.6592 54.8088 96.9533C54.5134 97.2474 53.861 97.2283 53.6077 97.5605C53.3545 97.8928 53.5387 98.5115 53.3276 98.8743C53.1166 99.2371 52.4834 99.3822 52.3222 99.768C52.1611 100.154 52.5064 100.704 52.3951 101.108C52.2838 101.513 51.7159 101.819 51.6584 102.254C51.6008 102.69 52.0805 103.11 52.0805 103.53C52.0805 103.95 51.6085 104.397 51.6584 104.805C51.7082 105.214 52.2877 105.531 52.3951 105.951C52.5026 106.371 52.1649 106.91 52.3222 107.292C52.4796 107.673 53.1204 107.826 53.3276 108.185C53.5348 108.544 53.3506 109.171 53.6077 109.499C53.8648 109.827 54.5134 109.812 54.8088 110.106C55.1043 110.4 55.089 111.05 55.419 111.305C55.749 111.561 56.3783 111.374 56.739 111.58C57.0997 111.787 57.2532 112.421 57.6408 112.581C58.0284 112.741 58.5809 112.402 58.9877 112.508C59.3945 112.615 59.6976 113.184 60.1159 113.242C60.5342 113.299 60.9755 112.822 61.3976 112.822C61.8197 112.822 62.2725 113.295 62.6792 113.242C63.086 113.188 63.4122 112.615 63.8113 112.508C64.2104 112.402 64.7744 112.738 65.1582 112.581C65.5419 112.424 65.6992 111.787 66.0561 111.58C66.413 111.374 67.0462 111.558 67.3762 111.302C67.7062 111.046 67.6908 110.4 67.9863 110.106C68.2818 109.812 68.938 109.827 69.1912 109.499C69.4445 109.171 69.2603 108.548 69.4714 108.185C69.6824 107.822 70.3156 107.677 70.4729 107.292C70.6302 106.906 70.2926 106.352 70.4 105.951C70.5075 105.55 71.0946 105.206 71.1483 104.79ZM61.4091 111.034C59.9147 111.034 58.4539 110.593 57.2113 109.767C55.9688 108.941 55.0004 107.766 54.4285 106.392C53.8566 105.018 53.707 103.506 53.9985 102.047C54.29 100.589 55.0097 99.2489 56.0664 98.1972C57.123 97.1455 58.4694 96.4293 59.935 96.1392C61.4007 95.849 62.9199 95.998 64.3005 96.5671C65.6812 97.1363 66.8612 98.1001 67.6915 99.3367C68.5217 100.573 68.9648 102.027 68.9648 103.514C68.9638 105.509 68.1674 107.421 66.7507 108.831C65.3339 110.241 63.4127 111.033 61.4091 111.034Z" fill="black"></path><path d="M65.6836 107.769C68.0438 105.42 68.0438 101.611 65.6836 99.2621C63.3233 96.9131 59.4966 96.9131 57.1363 99.2621C54.776 101.611 54.776 105.42 57.1363 107.769C59.4966 110.118 63.3233 110.118 65.6836 107.769Z" fill="black"></path></g><g opacity="0.1"><path d="M227.562 59.6926C227.631 59.1503 226.998 58.5469 226.998 57.9893C226.998 57.4317 227.631 56.8436 227.562 56.286C227.493 55.7284 226.722 55.3159 226.58 54.7851C226.438 54.2542 226.89 53.5019 226.676 52.9939C226.461 52.486 225.613 52.2759 225.336 51.7985C225.06 51.3212 225.302 50.4848 224.953 50.0456C224.603 49.6064 223.74 49.6293 223.345 49.2359C222.949 48.8426 222.961 47.9756 222.531 47.6357C222.101 47.2958 221.253 47.5441 220.77 47.2538C220.286 46.9636 220.087 46.1348 219.569 45.921C219.051 45.7071 218.314 46.1616 217.769 46.0164C217.224 45.8713 216.821 45.1113 216.261 45.0387C215.701 44.9662 215.11 45.6002 214.549 45.6002C213.989 45.6002 213.398 44.97 212.838 45.0387C212.278 45.1075 211.863 45.8751 211.33 46.0164C210.797 46.1577 210.044 45.7109 209.53 45.921C209.016 46.131 208.813 46.9788 208.329 47.2576C207.846 47.5364 207.009 47.2882 206.568 47.6395C206.126 47.9909 206.169 48.8426 205.785 49.2474C205.401 49.6522 204.519 49.6293 204.181 50.057C203.843 50.4848 204.089 51.3288 203.797 51.81C203.506 52.2912 202.669 52.4898 202.454 53.0054C202.239 53.5209 202.7 54.2542 202.554 54.7965C202.408 55.3388 201.644 55.7398 201.572 56.2974C201.499 56.855 202.132 57.4432 202.132 58.0007C202.132 58.5583 201.499 59.1465 201.572 59.7041C201.644 60.2617 202.412 60.6741 202.554 61.205C202.696 61.7358 202.243 62.4844 202.454 62.9961C202.665 63.5079 203.517 63.7103 203.797 64.1915C204.077 64.6727 203.832 65.5053 204.181 65.9445C204.53 66.3837 205.394 66.3607 205.785 66.7541C206.176 67.1475 206.169 68.0144 206.598 68.3505C207.028 68.6866 207.876 68.4421 208.364 68.7324C208.851 69.0226 209.047 69.8552 209.565 70.0691C210.083 70.283 210.82 69.8285 211.361 69.9698C211.902 70.1111 212.312 70.8749 212.869 70.9475C213.425 71.02 214.02 70.3899 214.58 70.3899C215.14 70.3899 215.731 71.02 216.292 70.9475C216.852 70.8749 217.266 70.1111 217.8 69.9698C218.333 69.8285 219.089 70.2791 219.599 70.0691C220.11 69.859 220.321 69.0112 220.801 68.7324C221.28 68.4536 222.121 68.7018 222.562 68.3505C223.003 67.9991 222.98 67.1437 223.375 66.7541C223.771 66.3646 224.642 66.3722 224.983 65.9445C225.325 65.5167 225.075 64.6727 225.367 64.1915C225.659 63.7103 226.491 63.5079 226.706 62.9961C226.921 62.4844 226.464 61.7435 226.61 61.205C226.756 60.6665 227.489 60.2464 227.562 59.6926ZM214.561 68.0259C212.566 68.0259 210.617 67.4372 208.958 66.3344C207.3 65.2316 206.007 63.6641 205.244 61.8301C204.481 59.9962 204.281 57.9782 204.67 56.0313C205.059 54.0843 206.02 52.296 207.43 50.8924C208.84 49.4887 210.637 48.5328 212.594 48.1456C214.55 47.7583 216.577 47.9571 218.42 48.7167C220.263 49.4763 221.838 50.7628 222.946 52.4133C224.054 54.0638 224.646 56.0042 224.646 57.9893C224.645 60.6508 223.582 63.2031 221.691 65.0851C219.8 66.9671 217.235 68.0249 214.561 68.0259Z" fill="black"></path><path d="M219.209 63.6977C222.773 61.0375 223.495 56.0057 220.822 52.4588C218.149 48.912 213.093 48.1931 209.53 50.8533C205.966 53.5134 205.243 58.5452 207.916 62.0921C210.589 65.639 215.645 66.3578 219.209 63.6977Z" fill="black"></path></g><g opacity="0.1"><path d="M206.391 141.338C204.722 141.338 203.089 141.83 201.701 142.754C200.313 143.677 199.231 144.989 198.592 146.524C197.953 148.06 197.786 149.749 198.111 151.379C198.437 153.009 199.241 154.506 200.422 155.681C201.602 156.856 203.107 157.656 204.744 157.98C206.382 158.304 208.079 158.138 209.622 157.502C211.165 156.866 212.483 155.789 213.411 154.408C214.338 153.026 214.833 151.401 214.833 149.74C214.833 147.511 213.944 145.374 212.361 143.799C210.778 142.223 208.63 141.338 206.391 141.338ZM206.936 155.568V156.454H205.862V155.568C204.404 155.369 203.747 154.265 203.747 152.68V151.981H204.971V152.783C204.971 153.834 205.409 154.437 206.349 154.437C207.289 154.437 207.727 153.834 207.727 152.783C207.727 150.179 203.797 150.144 203.797 146.852C203.797 145.248 204.453 144.198 205.862 143.98V143.045H206.936V143.961C208.364 144.164 209.016 145.264 209.016 146.833V147.15H207.792V146.749C207.792 145.714 207.374 145.08 206.433 145.08C205.493 145.08 205.09 145.714 205.09 146.749C205.09 149.373 209.035 149.388 209.035 152.68C209.035 154.25 208.364 155.369 206.936 155.568Z" fill="black"></path><path d="M206.391 135.991C203.659 135.991 200.988 136.797 198.716 138.308C196.445 139.819 194.674 141.966 193.628 144.478C192.583 146.99 192.309 149.755 192.842 152.422C193.375 155.089 194.691 157.538 196.623 159.461C198.555 161.384 201.016 162.694 203.696 163.224C206.376 163.755 209.154 163.482 211.678 162.442C214.202 161.401 216.36 159.639 217.878 157.378C219.396 155.117 220.206 152.459 220.206 149.739C220.206 146.093 218.75 142.596 216.16 140.018C213.569 137.439 210.055 135.991 206.391 135.991ZM206.391 160.051C204.342 160.051 202.339 159.446 200.635 158.313C198.931 157.18 197.603 155.57 196.819 153.686C196.035 151.801 195.83 149.728 196.229 147.728C196.629 145.728 197.616 143.89 199.065 142.448C200.514 141.006 202.36 140.024 204.37 139.626C206.38 139.228 208.463 139.432 210.356 140.213C212.249 140.993 213.868 142.315 215.006 144.011C216.144 145.706 216.752 147.7 216.752 149.739C216.752 152.474 215.661 155.097 213.718 157.031C211.774 158.965 209.139 160.051 206.391 160.051Z" fill="black"></path></g><g opacity="0.1"><path d="M173.77 153.257C172.59 153.257 171.438 153.605 170.457 154.257C169.476 154.909 168.712 155.836 168.261 156.921C167.809 158.005 167.691 159.198 167.921 160.35C168.151 161.501 168.719 162.558 169.553 163.388C170.387 164.218 171.45 164.784 172.607 165.013C173.763 165.242 174.962 165.124 176.052 164.675C177.142 164.226 178.073 163.465 178.728 162.489C179.383 161.513 179.733 160.366 179.733 159.192C179.733 158.412 179.579 157.641 179.279 156.921C178.98 156.2 178.54 155.546 177.987 154.995C177.433 154.444 176.775 154.007 176.052 153.709C175.328 153.41 174.553 153.257 173.77 153.257ZM174.154 163.309V163.935H173.386V163.309C172.354 163.167 171.893 162.388 171.893 161.265V160.765H172.784V161.33C172.784 162.071 173.091 162.499 173.755 162.499C174.418 162.499 174.729 162.071 174.729 161.33C174.729 159.49 171.955 159.467 171.955 157.129C171.955 155.984 172.415 155.254 173.413 155.101V154.441H174.181V155.101C175.186 155.243 175.65 156.022 175.65 157.129V157.355H174.783V157.072C174.783 156.339 174.487 155.892 173.824 155.892C173.16 155.892 172.876 156.339 172.876 157.072C172.876 158.924 175.662 158.936 175.662 161.273C175.639 162.377 175.163 163.167 174.157 163.309H174.154Z" fill="black"></path><path d="M173.77 149.479C171.84 149.479 169.953 150.049 168.348 151.116C166.744 152.183 165.493 153.7 164.754 155.475C164.016 157.249 163.822 159.202 164.199 161.086C164.576 162.97 165.505 164.701 166.87 166.059C168.234 167.417 169.973 168.342 171.866 168.717C173.759 169.092 175.721 168.899 177.504 168.164C179.287 167.429 180.811 166.184 181.884 164.587C182.956 162.99 183.528 161.112 183.528 159.191C183.528 156.616 182.5 154.145 180.67 152.324C178.84 150.503 176.358 149.479 173.77 149.479ZM173.77 166.474C172.323 166.474 170.908 166.047 169.704 165.247C168.501 164.447 167.563 163.309 167.009 161.979C166.455 160.648 166.31 159.183 166.593 157.771C166.875 156.358 167.572 155.06 168.595 154.042C169.619 153.023 170.923 152.329 172.342 152.048C173.762 151.767 175.233 151.912 176.57 152.463C177.907 153.014 179.05 153.948 179.854 155.145C180.659 156.343 181.088 157.751 181.088 159.191C181.09 160.149 180.903 161.099 180.536 161.984C180.17 162.87 179.631 163.675 178.951 164.354C178.271 165.032 177.464 165.57 176.575 165.937C175.686 166.305 174.732 166.494 173.77 166.494V166.474Z" fill="black"></path></g><g opacity="0.1"><path d="M163.463 132.637C162.283 132.637 161.13 132.986 160.15 133.638C159.169 134.29 158.405 135.217 157.953 136.301C157.502 137.386 157.384 138.579 157.614 139.73C157.844 140.881 158.412 141.939 159.246 142.769C160.08 143.599 161.143 144.164 162.299 144.393C163.456 144.622 164.655 144.505 165.745 144.055C166.834 143.606 167.766 142.846 168.421 141.87C169.076 140.894 169.426 139.746 169.426 138.572C169.427 137.793 169.273 137.021 168.973 136.301C168.674 135.58 168.234 134.926 167.681 134.375C167.127 133.823 166.469 133.386 165.745 133.088C165.022 132.79 164.246 132.637 163.463 132.637ZM163.846 142.689V143.312H163.079V142.689C162.051 142.548 161.586 141.769 161.586 140.646V140.142H162.454V140.707C162.454 141.448 162.761 141.876 163.424 141.876C164.088 141.876 164.395 141.448 164.395 140.707C164.395 138.866 161.621 138.843 161.621 136.506C161.621 135.36 162.085 134.631 163.079 134.478V133.818H163.846V134.478C164.856 134.62 165.316 135.399 165.316 136.506V136.732H164.453V136.449C164.453 135.716 164.153 135.269 163.49 135.269C162.826 135.269 162.542 135.716 162.542 136.449C162.542 138.301 165.328 138.313 165.328 140.65C165.328 141.757 164.856 142.548 163.846 142.689Z" fill="black"></path><path d="M163.463 128.861C161.533 128.86 159.646 129.429 158.04 130.496C156.435 131.562 155.184 133.079 154.445 134.853C153.705 136.628 153.512 138.581 153.888 140.465C154.264 142.349 155.193 144.08 156.558 145.439C157.922 146.797 159.661 147.723 161.554 148.098C163.447 148.473 165.409 148.281 167.193 147.546C168.976 146.811 170.5 145.566 171.573 143.969C172.645 142.371 173.217 140.494 173.217 138.573C173.218 137.297 172.966 136.035 172.476 134.856C171.986 133.678 171.268 132.607 170.362 131.705C169.456 130.804 168.38 130.088 167.197 129.6C166.013 129.112 164.744 128.861 163.463 128.861ZM163.463 145.856C162.016 145.856 160.601 145.428 159.397 144.628C158.194 143.828 157.256 142.69 156.702 141.36C156.148 140.029 156.003 138.564 156.286 137.152C156.568 135.739 157.265 134.441 158.288 133.423C159.312 132.404 160.616 131.711 162.035 131.429C163.455 131.148 164.926 131.293 166.263 131.844C167.601 132.395 168.743 133.329 169.547 134.526C170.352 135.724 170.781 137.132 170.781 138.573C170.783 139.53 170.595 140.479 170.228 141.364C169.861 142.25 169.323 143.054 168.643 143.732C167.963 144.41 167.156 144.948 166.267 145.315C165.378 145.682 164.425 145.871 163.463 145.871V145.856Z" fill="black"></path></g><path opacity="0.1" d="M82.1377 20.234H87.7824L84.9582 15.3723L82.1377 20.234Z" fill="black"></path><path opacity="0.1" d="M71.0594 20.234H76.7042L73.8837 15.3723L71.0594 20.234Z" fill="black"></path><path opacity="0.1" d="M79.4209 9.021C77.2487 9.021 75.1254 9.66204 73.3193 10.8631C71.5133 12.0641 70.1056 13.7712 69.2744 15.7684C68.4431 17.7657 68.2256 19.9634 68.6494 22.0836C69.0731 24.2039 70.1191 26.1515 71.6551 27.6801C73.191 29.2087 75.1479 30.2497 77.2783 30.6715C79.4087 31.0932 81.6169 30.8767 83.6237 30.0495C85.6305 29.2222 87.3457 27.8212 88.5525 26.0238C89.7593 24.2263 90.4034 22.113 90.4034 19.9512C90.4003 17.0533 89.2423 14.2749 87.1833 12.2257C85.1244 10.1766 82.3327 9.02403 79.4209 9.021ZM87.1877 21.75H82.7325C82.5151 21.75 82.3016 21.6931 82.1133 21.585C81.925 21.4769 81.7685 21.3214 81.6597 21.1342C81.5508 20.9469 81.4934 20.7344 81.4931 20.5181C81.4928 20.3018 81.5497 20.0891 81.6581 19.9016L84.8814 14.341H80.1807V24.9581H81.9228V25.8632H84.3519V27.135H74.793V25.8632H76.9151V24.9581H79.1523V14.3219H73.9603L77.1837 19.8825C77.2969 20.0705 77.3577 20.2851 77.3599 20.5043C77.3621 20.7235 77.3055 20.9393 77.1961 21.1295C77.0867 21.3197 76.9283 21.4774 76.7373 21.5865C76.5462 21.6956 76.3295 21.752 76.1092 21.75H71.6541C71.4367 21.75 71.2231 21.6931 71.0348 21.585C70.8465 21.4769 70.6901 21.3214 70.5812 21.1342C70.4724 20.9469 70.4149 20.7344 70.4147 20.5181C70.4144 20.3018 70.4713 20.0891 70.5796 19.9016L73.803 14.341H73.6725C73.5423 14.3299 73.4211 14.2705 73.3327 14.1747C73.2444 14.0789 73.1953 13.9536 73.1953 13.8235C73.1953 13.6935 73.2444 13.5681 73.3327 13.4723C73.4211 13.3765 73.5423 13.3172 73.6725 13.306H79.1523C79.1635 13.1764 79.2231 13.0558 79.3194 12.9678C79.4156 12.8799 79.5415 12.8311 79.6722 12.8311C79.8029 12.8311 79.9288 12.8799 80.0251 12.9678C80.1214 13.0558 80.181 13.1764 80.1922 13.306H85.6451C85.7171 13.2999 85.7896 13.3087 85.8581 13.3319C85.9265 13.3551 85.9894 13.3922 86.0426 13.4408C86.0959 13.4895 86.1384 13.5486 86.1675 13.6145C86.1966 13.6804 86.2117 13.7515 86.2117 13.8235C86.2117 13.8955 86.1966 13.9666 86.1675 14.0325C86.1384 14.0984 86.0959 14.1575 86.0426 14.2062C85.9894 14.2548 85.9265 14.2919 85.8581 14.3152C85.7896 14.3384 85.7171 14.3472 85.6451 14.341H85.0349L88.2621 19.9016C88.3705 20.0891 88.4274 20.3018 88.4271 20.5181C88.4268 20.7344 88.3693 20.9469 88.2605 21.1342C88.1516 21.3214 87.9952 21.4769 87.8069 21.585C87.6186 21.6931 87.4051 21.75 87.1877 21.75Z" fill="black"></path><path opacity="0.1" d="M79.4209 7.43604C76.9338 7.43604 74.5026 8.17004 72.4346 9.54522C70.3667 10.9204 68.7549 12.875 67.8031 15.1619C66.8513 17.4487 66.6023 19.9651 67.0875 22.3928C67.5727 24.8205 68.7704 27.0505 70.529 28.8008C72.2877 30.551 74.5283 31.743 76.9676 32.2259C79.407 32.7088 81.9354 32.4609 84.2332 31.5137C86.5309 30.5665 88.4949 28.9624 89.8766 26.9043C91.2584 24.8461 91.9959 22.4265 91.9959 19.9512C91.9959 16.632 90.6711 13.4487 88.3128 11.1016C85.9545 8.75459 82.756 7.43604 79.4209 7.43604ZM79.4209 31.2634C77.1729 31.2634 74.9753 30.5999 73.1062 29.3569C71.237 28.1139 69.7801 26.3472 68.9199 24.2802C68.0596 22.2131 67.8345 19.9387 68.2731 17.7443C68.7116 15.55 69.7942 13.5343 71.3838 11.9523C72.9734 10.3703 74.9986 9.29289 77.2035 8.85641C79.4083 8.41993 81.6937 8.64394 83.7706 9.50013C85.8475 10.3563 87.6227 11.8062 88.8716 13.6665C90.1205 15.5268 90.7872 17.7139 90.7872 19.9512C90.7831 22.9501 89.5843 25.8251 87.4536 27.9456C85.3229 30.0662 82.4342 31.2593 79.4209 31.2634Z" fill="black"></path><path opacity="0.1" d="M90.5145 148.349H96.1593L93.3388 143.484L90.5145 148.349Z" fill="black"></path><path opacity="0.1" d="M79.4402 148.349H85.0849L82.2606 143.484L79.4402 148.349Z" fill="black"></path><path opacity="0.1" d="M87.7979 137.136C85.6256 137.136 83.5021 137.777 81.696 138.979C79.8898 140.18 78.4822 141.887 77.6511 143.885C76.8199 145.882 76.6027 148.08 77.0267 150.2C77.4508 152.321 78.4972 154.268 80.0335 155.797C81.5698 157.325 83.5271 158.366 85.6577 158.787C87.7884 159.208 89.9967 158.991 92.0034 158.164C94.0102 157.336 95.7251 155.934 96.9314 154.136C98.1378 152.338 98.7812 150.225 98.7805 148.063C98.7774 145.165 97.6192 142.387 95.5602 140.339C93.5011 138.29 90.7094 137.138 87.7979 137.136ZM95.5686 149.842H91.1096C90.8921 149.843 90.6783 149.786 90.4898 149.678C90.3014 149.57 90.1449 149.414 90.0363 149.227C89.9277 149.039 89.8707 148.826 89.8712 148.61C89.8717 148.394 89.9295 148.181 90.039 147.994L93.2623 142.437H88.5616V153.069H90.3037V153.975H92.7328V155.246H83.1701V153.975H85.2922V153.069H87.5178V142.433H82.3374L85.5608 147.99C85.6702 148.177 85.7281 148.39 85.7285 148.606C85.729 148.823 85.672 149.035 85.5634 149.223C85.4548 149.41 85.2983 149.566 85.1099 149.674C84.9214 149.782 84.7077 149.839 84.4901 149.839H80.0311C79.8136 149.839 79.5998 149.782 79.4114 149.674C79.2229 149.566 79.0665 149.41 78.9579 149.223C78.8492 149.035 78.7923 148.823 78.7927 148.606C78.7932 148.39 78.8511 148.177 78.9605 147.99L82.1839 142.433H82.0534C81.915 142.433 81.7823 142.379 81.6844 142.281C81.5865 142.184 81.5315 142.052 81.5315 141.914C81.5315 141.776 81.5865 141.644 81.6844 141.547C81.7823 141.449 81.915 141.395 82.0534 141.395H87.5178C87.5178 141.257 87.5728 141.125 87.6707 141.027C87.7685 140.93 87.9013 140.875 88.0397 140.875C88.1781 140.875 88.3109 140.93 88.4087 141.027C88.5066 141.125 88.5616 141.257 88.5616 141.395H94.026C94.1644 141.395 94.2971 141.449 94.395 141.547C94.4929 141.644 94.5479 141.776 94.5479 141.914C94.5479 142.052 94.4929 142.184 94.395 142.281C94.2971 142.379 94.1644 142.433 94.026 142.433H93.4158L96.6392 147.99C96.7484 148.177 96.806 148.39 96.8064 148.607C96.8067 148.823 96.7498 149.036 96.6413 149.224C96.5328 149.412 96.3765 149.568 96.1882 149.676C95.9999 149.785 95.7862 149.842 95.5686 149.842Z" fill="black"></path><path opacity="0.1" d="M87.7978 135.559C85.3107 135.559 82.8794 136.293 80.8115 137.669C78.7435 139.044 77.1318 140.998 76.18 143.285C75.2282 145.572 74.9792 148.088 75.4644 150.516C75.9496 152.944 77.1473 155.174 78.9059 156.924C80.6646 158.674 82.9052 159.866 85.3445 160.349C87.7838 160.832 90.3123 160.584 92.61 159.637C94.9078 158.69 96.8718 157.086 98.2535 155.028C99.6353 152.969 100.373 150.55 100.373 148.074C100.373 144.755 99.048 141.572 96.6897 139.225C94.3314 136.878 91.1329 135.559 87.7978 135.559ZM87.7978 159.387C85.5498 159.387 83.3522 158.723 81.4831 157.48C79.6139 156.237 78.157 154.47 77.2968 152.403C76.4365 150.336 76.2114 148.062 76.65 145.868C77.0885 143.673 78.171 141.658 79.7606 140.076C81.3502 138.494 83.3755 137.416 85.5804 136.98C87.7852 136.543 90.0706 136.767 92.1475 137.623C94.2244 138.48 95.9995 139.93 97.2485 141.79C98.4974 143.65 99.164 145.837 99.164 148.074C99.158 151.072 97.9581 153.944 95.8275 156.063C93.6969 158.181 90.8094 159.372 87.7978 159.375V159.387Z" fill="black"></path><path d="M199.829 98.3879C202.097 98.808 204.572 97.3606 205.969 95.0348C207.032 93.2894 207.404 91.567 207.838 89.5925C208.325 87.4386 225.179 9.45652 225.356 8.68506H139.997L122.622 89.0426L121.916 92.285C121.769 92.9598 121.51 93.6053 121.148 94.1945L120.634 95.0462C120.091 95.9414 119.311 96.6714 118.381 97.1571C117.45 97.6428 116.403 97.8657 115.355 97.8015C114.306 97.7374 113.294 97.3887 112.43 96.7933C111.566 96.1978 110.883 95.3783 110.454 94.4237C109.746 92.8466 108.6 91.5035 107.151 90.5523C105.703 89.6011 104.011 89.0813 102.276 89.054H101.958C99.9384 89.0918 97.9887 89.795 96.4138 91.0535C94.839 92.3119 93.7279 94.0546 93.2545 96.0086L86.2053 125.118H171.552L178.029 98.3841" fill="white"></path><path d="M199.829 98.3879C202.097 98.808 204.572 97.3606 205.969 95.0347C207.032 93.2894 207.404 91.567 207.838 89.5925C208.325 87.4386 225.179 9.45652 225.356 8.68506H139.997L122.622 89.0426L121.916 92.285C121.769 92.9598 121.51 93.6053 121.148 94.1945L120.634 95.0462C120.091 95.9414 119.311 96.6714 118.381 97.1571C117.45 97.6428 116.403 97.8657 115.355 97.8015C114.306 97.7374 113.294 97.3887 112.43 96.7932C111.566 96.1978 110.883 95.3783 110.454 94.4237C109.746 92.8466 108.6 91.5035 107.151 90.5523C105.703 89.6011 104.011 89.0813 102.276 89.054H101.958C99.9384 89.0918 97.9887 89.795 96.4138 91.0535C94.839 92.3119 93.7279 94.0546 93.2545 96.0086L86.2053 125.118H171.552L178.029 98.3841" stroke="#373A33" stroke-linecap="round" stroke-linejoin="round"></path><path d="M167.028 17.7552L166.905 18.3968H166.137L166.268 17.7132C166.395 17.0716 166.214 16.6858 165.627 16.6858C165.04 16.6858 164.714 17.0677 164.587 17.7132L163.858 21.4903C163.731 22.1319 163.923 22.5176 164.499 22.5176C165.074 22.5176 165.416 22.1357 165.539 21.4903L165.719 20.5622H166.487L166.318 21.4482C166.107 22.529 165.454 23.2432 164.349 23.2432C163.244 23.2432 162.88 22.529 163.087 21.4482L163.804 17.7552C164.012 16.6744 164.664 15.9602 165.761 15.9602C166.859 15.9602 167.22 16.6744 167.028 17.7552Z" fill="#373A33"></path><path d="M167.676 17.7552C167.887 16.6629 168.567 15.9602 169.664 15.9602C170.762 15.9602 171.176 16.6629 170.965 17.7552L170.251 21.4482C170.04 22.529 169.361 23.2432 168.252 23.2432C167.143 23.2432 166.751 22.529 166.959 21.4482L167.676 17.7552ZM167.742 21.4903C167.615 22.1433 167.818 22.5176 168.394 22.5176C168.969 22.5176 169.315 22.1357 169.441 21.4903L170.174 17.7132C170.297 17.0716 170.105 16.6858 169.522 16.6858C168.939 16.6858 168.597 17.0677 168.474 17.7132L167.742 21.4903Z" fill="#373A33"></path><path d="M171.383 23.1706H170.666L172.047 16.0212H173.064L173.724 21.1808L174.726 16.0212H175.432L174.046 23.1591H173.217L172.5 17.3885L171.383 23.1706Z" fill="#373A33"></path><path d="M175.904 23.1706L177.147 16.7545H175.823L175.965 16.0327H179.399L179.257 16.7545H177.937L176.694 23.1706H175.904Z" fill="#373A33"></path><path d="M181.541 16.0212C182.669 16.0212 183.029 16.5903 182.826 17.652L182.711 18.2325C182.561 19.0192 182.189 19.5081 181.537 19.7028C182.155 19.8976 182.304 20.4285 182.151 21.1923L181.932 22.3036C181.858 22.584 181.858 22.8788 181.932 23.1591H181.118C181.06 22.8713 181.073 22.5738 181.157 22.2922L181.372 21.1732C181.529 20.3635 181.199 20.1115 180.531 20.1115H179.967L179.376 23.1668H178.578L179.94 16.0212H181.541ZM180.685 19.3859C180.829 19.4067 180.977 19.3975 181.118 19.3587C181.259 19.3199 181.39 19.2524 181.503 19.1605C181.616 19.0686 181.709 18.9542 181.776 18.8247C181.842 18.6952 181.881 18.5534 181.89 18.4082L182.02 17.7246C182.147 17.0791 181.974 16.743 181.379 16.743H180.612L180.075 19.3973L180.685 19.3859Z" fill="#373A33"></path><path d="M183.686 21.7499L183.145 23.1706H182.377L185.152 16.0212H186.303V23.1591H185.505V21.7499H183.686ZM183.92 21.0663H185.52V16.9455L183.92 21.0663Z" fill="#373A33"></path><path d="M191.13 17.7552L191.007 18.3968H190.24L190.374 17.7132C190.497 17.0716 190.317 16.6858 189.733 16.6858C189.15 16.6858 188.816 17.0677 188.694 17.7132L187.961 21.4903C187.838 22.1319 188.026 22.5176 188.601 22.5176C189.177 22.5176 189.519 22.1357 189.641 21.4903L189.822 20.5622H190.589L190.436 21.4482C190.225 22.529 189.576 23.2432 188.467 23.2432C187.358 23.2432 186.982 22.5138 187.185 21.4482L187.903 17.7552C188.11 16.6744 188.763 15.9602 189.86 15.9602C190.958 15.9602 191.341 16.6744 191.13 17.7552Z" fill="#373A33"></path><path d="M191.844 23.1706L193.087 16.7545H191.767L191.905 16.0327H195.34L195.202 16.7545H193.889L192.646 23.1706H191.844Z" fill="#373A33"></path><path d="M142.196 26.6611H217.482" stroke="#263238" stroke-miterlimit="10"></path><path d="M197.454 34.9641H215.072" stroke="#263238" stroke-miterlimit="10"></path><path d="M169.825 34.9641H195.601" stroke="#263238" stroke-miterlimit="10"></path><path d="M152.58 34.9641H168.344" stroke="#263238" stroke-miterlimit="10"></path><path d="M139.786 34.9641H151.099" stroke="#263238" stroke-miterlimit="10"></path><path d="M195.228 39.2073H214.143" stroke="#263238" stroke-miterlimit="10"></path><path d="M152.396 39.2073H193.375" stroke="#263238" stroke-miterlimit="10"></path><path d="M138.862 39.2073H150.727" stroke="#263238" stroke-miterlimit="10"></path><path d="M191.338 43.4541H213.218" stroke="#263238" stroke-miterlimit="10"></path><path d="M158.516 43.4541H189.852" stroke="#263238" stroke-miterlimit="10"></path><path d="M137.933 43.4541H157.031" stroke="#263238" stroke-miterlimit="10"></path><path d="M198.567 47.697H212.289" stroke="#263238" stroke-miterlimit="10"></path><path d="M177.615 47.697H196.714" stroke="#263238" stroke-miterlimit="10"></path><path d="M157.404 47.697H175.762" stroke="#263238" stroke-miterlimit="10"></path><path d="M142.196 47.697H155.735" stroke="#263238" stroke-miterlimit="10"></path><path d="M137.004 47.697H140.527" stroke="#263238" stroke-miterlimit="10"></path><path d="M208.21 51.9441H211.361" stroke="#263238" stroke-miterlimit="10"></path><path d="M176.871 51.9441H205.8" stroke="#263238" stroke-miterlimit="10"></path><path d="M154.806 51.9441H175.017" stroke="#263238" stroke-miterlimit="10"></path><path d="M136.08 51.9441H152.768" stroke="#263238" stroke-miterlimit="10"></path><path d="M204.131 56.1868H210.436" stroke="#263238" stroke-miterlimit="10"></path><path d="M185.773 56.1868H202.462" stroke="#263238" stroke-miterlimit="10"></path><path d="M180.209 56.1868H183.92" stroke="#263238" stroke-miterlimit="10"></path><path d="M153.509 56.1868H179.284" stroke="#263238" stroke-miterlimit="10"></path><path d="M135.151 56.1868H152.024" stroke="#263238" stroke-miterlimit="10"></path><path d="M134.222 60.4297H209.507" stroke="#263238" stroke-miterlimit="10"></path><path d="M204.688 64.6765H208.583" stroke="#263238" stroke-miterlimit="10"></path><path d="M187.627 64.6765H202.278" stroke="#263238" stroke-miterlimit="10"></path><path d="M163.152 64.6765H185.032" stroke="#263238" stroke-miterlimit="10"></path><path d="M157.772 64.6765H161.483" stroke="#263238" stroke-miterlimit="10"></path><path d="M140.715 64.6765H155.734" stroke="#263238" stroke-miterlimit="10"></path><path d="M133.297 64.6765H138.489" stroke="#263238" stroke-miterlimit="10"></path><path d="M188.74 68.9197H207.654" stroke="#263238" stroke-miterlimit="10"></path><path d="M168.712 68.9197H186.33" stroke="#263238" stroke-miterlimit="10"></path><path d="M153.325 68.9197H166.859" stroke="#263238" stroke-miterlimit="10"></path><path d="M132.369 68.9197H151.467" stroke="#263238" stroke-miterlimit="10"></path><path d="M200.793 73.1665H206.725" stroke="#263238" stroke-miterlimit="10"></path><path d="M181.138 73.1665H198.751" stroke="#263238" stroke-miterlimit="10"></path><path d="M168.528 73.1665H179.841" stroke="#263238" stroke-miterlimit="10"></path><path d="M158.328 73.1665H166.675" stroke="#263238" stroke-miterlimit="10"></path><path d="M148.689 73.1665H156.847" stroke="#263238" stroke-miterlimit="10"></path><path d="M136.448 73.1665H146.648" stroke="#263238" stroke-miterlimit="10"></path><path d="M131.444 73.1665H134.779" stroke="#263238" stroke-miterlimit="10"></path><path d="M195.785 77.4094H205.801" stroke="#263238" stroke-miterlimit="10"></path><path d="M178.172 77.4094H193.559" stroke="#263238" stroke-miterlimit="10"></path><path d="M161.667 77.4094H175.946" stroke="#263238" stroke-miterlimit="10"></path><path d="M142.384 77.4094H159.441" stroke="#263238" stroke-miterlimit="10"></path><path d="M130.515 77.4094H140.527" stroke="#263238" stroke-miterlimit="10"></path><path d="M195.228 81.6523H204.872" stroke="#263238" stroke-miterlimit="10"></path><path d="M178.54 81.6523H193.375" stroke="#263238" stroke-miterlimit="10"></path><path d="M161.295 81.6523H175.946" stroke="#263238" stroke-miterlimit="10"></path><path d="M149.43 81.6523H159.629" stroke="#263238" stroke-miterlimit="10"></path><path d="M137.192 81.6523H147.576" stroke="#263238" stroke-miterlimit="10"></path><path d="M129.587 81.6523H136.079" stroke="#263238" stroke-miterlimit="10"></path><path d="M198.383 85.8992H203.943" stroke="#263238" stroke-miterlimit="10"></path><path d="M179.469 85.8992H196.529" stroke="#263238" stroke-miterlimit="10"></path><path d="M164.449 85.8992H177.243" stroke="#263238" stroke-miterlimit="10"></path><path d="M154.621 85.8992H162.407" stroke="#263238" stroke-miterlimit="10"></path><path d="M138.862 85.8992H151.84" stroke="#263238" stroke-miterlimit="10"></path><path d="M128.662 85.8992H137.561" stroke="#263238" stroke-miterlimit="10"></path><path d="M186.717 89.0422V89.069C184.805 89.2278 182.992 89.9828 181.536 91.2267C180.081 92.4706 179.056 94.1398 178.609 95.9968L171.552 125.117H86.2054L93.2585 95.9968C93.7319 94.0428 94.8429 92.3001 96.4178 91.0416C97.9926 89.7832 99.9423 89.08 101.962 89.0422H186.717Z" fill="white" stroke="#263238" stroke-linecap="round" stroke-linejoin="round"></path><path d="M199.829 98.3877H178.029L178.609 95.997C179.06 94.1419 180.085 92.4748 181.54 91.2316C182.995 89.9883 184.806 89.2319 186.717 89.0691C186.967 89.05 187.216 89.0386 187.465 89.0386C190.919 89.0386 194.469 90.9214 195.808 94.412C196.752 96.8792 198.237 98.0898 199.829 98.3877Z" fill="#263238" stroke="#373A33" stroke-linecap="round" stroke-linejoin="round"></path><path d="M173.137 95.8979C173.137 96.1805 172.442 96.3906 172.393 96.6618C172.343 96.9329 172.907 97.3836 172.807 97.6394C172.707 97.8953 171.982 97.8495 171.84 98.0901C171.698 98.3307 172.082 98.9341 171.901 99.148C171.721 99.3619 171.053 99.0945 170.842 99.2817C170.631 99.4688 170.842 100.156 170.612 100.317C170.382 100.477 169.798 100.049 169.553 100.179C169.307 100.309 169.346 101.031 169.085 101.134C168.824 101.237 168.348 100.699 168.079 100.775C167.811 100.851 167.696 101.565 167.427 101.615C167.158 101.665 166.79 101.042 166.51 101.069C166.23 101.096 165.992 101.772 165.712 101.772C165.432 101.772 165.182 101.092 164.91 101.069C164.637 101.046 164.265 101.665 163.996 101.615C163.728 101.565 163.613 100.851 163.34 100.775C163.068 100.699 162.592 101.237 162.339 101.134C162.085 101.031 162.108 100.309 161.87 100.179C161.633 100.049 161.034 100.473 160.811 100.317C160.589 100.16 160.781 99.4612 160.577 99.2817C160.374 99.1022 159.695 99.3542 159.518 99.148C159.342 98.9418 159.722 98.3231 159.583 98.0863C159.445 97.8495 158.716 97.8953 158.616 97.6394C158.517 97.3836 159.081 96.9329 159.027 96.6618C158.973 96.3906 158.286 96.1844 158.286 95.8979C158.286 95.6115 158.977 95.4091 159.027 95.1341C159.077 94.8591 158.517 94.4161 158.616 94.1564C158.716 93.8967 159.438 93.9502 159.583 93.7096C159.729 93.469 159.338 92.8656 159.518 92.6517C159.699 92.4378 160.37 92.7052 160.577 92.518C160.784 92.3309 160.577 91.6435 160.811 91.4831C161.045 91.3227 161.621 91.7504 161.87 91.6167C162.12 91.4831 162.078 90.7689 162.339 90.662C162.6 90.555 163.072 91.1012 163.34 91.0248C163.609 90.9484 163.724 90.2342 163.996 90.1846C164.269 90.1349 164.63 90.7574 164.91 90.7307C165.19 90.704 165.428 90.0242 165.712 90.0242C165.996 90.0242 166.237 90.704 166.51 90.7307C166.782 90.7574 167.158 90.1311 167.427 90.1846C167.696 90.238 167.811 90.9484 168.079 91.0248C168.348 91.1012 168.847 90.5627 169.085 90.662C169.323 90.7613 169.311 91.4907 169.553 91.6167C169.795 91.7428 170.386 91.3265 170.612 91.4831C170.838 91.6396 170.643 92.3347 170.842 92.518C171.042 92.7014 171.729 92.4417 171.901 92.6517C172.074 92.8618 171.698 93.4766 171.84 93.7096C171.982 93.9426 172.707 93.9044 172.807 94.1603C172.907 94.4161 172.339 94.863 172.393 95.1341C172.446 95.4053 173.137 95.6191 173.137 95.8979Z" fill="#E9CE8D"></path><path d="M165.712 100.297C168.825 100.297 171.349 98.3275 171.349 95.8976C171.349 93.4678 168.825 91.498 165.712 91.498C162.598 91.498 160.074 93.4678 160.074 95.8976C160.074 98.3275 162.598 100.297 165.712 100.297Z" fill="white"></path><path d="M165.712 99.4609C168.232 99.4609 170.274 97.8656 170.274 95.8977C170.274 93.9298 168.232 92.3345 165.712 92.3345C163.192 92.3345 161.149 93.9298 161.149 95.8977C161.149 97.8656 163.192 99.4609 165.712 99.4609Z" fill="#E9CE8D"></path><path d="M168.923 117.338H131.862" stroke="#263238" stroke-linecap="round" stroke-linejoin="round"></path><path d="M139.902 116.559C139.902 116.559 146.897 108.848 148.893 101.283C150.888 93.717 145.98 97.8187 144.019 106.209C142.058 114.6 142.058 116.75 144.019 115.188C145.592 113.844 146.95 112.269 148.044 110.517C148.321 110.082 148.551 109.677 148.728 109.333C149.495 107.771 146.962 108.749 146.371 111.869C145.78 114.989 149.315 110.506 150.293 108.944C151.272 107.382 153.236 106.603 151.667 110.7C150.097 114.798 147.745 114.015 149.902 111.285C152.058 108.554 154.414 102.883 154.61 106.014C154.806 109.146 154.019 112.644 152.446 113.63C150.873 114.615 155.385 109.142 156.759 109.532C158.133 109.921 158.72 111.483 157.346 112.656C155.972 113.828 155.972 109.921 166.368 110.311" stroke="#263238" stroke-linecap="round" stroke-linejoin="round"></path><path d="M164.672 105.789L170.428 110.372C170.49 110.423 170.534 110.494 170.55 110.573C170.567 110.652 170.556 110.735 170.52 110.807C170.483 110.879 170.423 110.936 170.349 110.97C170.275 111.003 170.192 111.01 170.113 110.99L162.822 109.108L164.672 105.789Z" fill="white" stroke="#263238" stroke-linecap="round" stroke-linejoin="round"></path><path d="M163.739 104.006L130.108 84.1885L126.352 90.5511L161.172 109.322C161.258 109.382 161.351 109.432 161.448 109.471C162.599 109.952 164.054 109.12 164.687 107.607C165.32 106.095 164.894 104.483 163.739 104.006Z" fill="#E9CE8D" stroke="#263238" stroke-linecap="round" stroke-linejoin="round"></path><path d="M130.995 88.248C130.013 90.5891 127.764 91.8838 125.972 91.1391C125.8 91.066 125.635 90.9764 125.481 90.8717L91.0098 71.7534L88.2008 70.1914L87.8555 70.0042L87.9437 69.7942L91.8962 60.3763L92.065 59.9944L92.5217 60.2694L96.4588 62.6563L129.529 82.676C131.34 83.4054 131.977 85.9107 130.995 88.248Z" fill="white" stroke="#263238" stroke-linecap="round" stroke-linejoin="round"></path><path d="M129.199 82.474L96.4588 62.6529L92.5217 60.2659L92.065 59.991L91.8962 60.3729L87.9437 69.7908L87.8555 70.0008L88.2008 70.1879L91.0098 71.7499L124.69 90.4291C126.486 90.96 128.62 89.6653 129.579 87.3739C130.347 85.5292 130.143 83.6197 129.199 82.474Z" fill="#E9CE8D" stroke="#263238" stroke-linecap="round" stroke-linejoin="round"></path><path d="M91.0097 71.7531C93.055 71.8371 95.2308 70.256 96.2976 67.7354C97.0261 66.1239 97.084 64.2909 96.4588 62.6369L92.5216 60.25C92.3103 60.2769 92.1013 60.319 91.8961 60.376C90.2729 60.8305 88.7227 62.2397 87.8861 64.2371C87.0496 66.2345 87.1186 68.3274 87.9437 69.7939C88.0201 69.9272 88.106 70.0548 88.2008 70.1758" fill="white"></path><path d="M91.0097 71.7531C93.055 71.8371 95.2308 70.256 96.2976 67.7354C97.0261 66.1239 97.084 64.2909 96.4588 62.6369L92.5216 60.25C92.3103 60.2769 92.1013 60.319 91.8961 60.376C90.2729 60.8305 88.7227 62.2397 87.8861 64.2371C87.0496 66.2345 87.1186 68.3274 87.9437 69.7939C88.0201 69.9272 88.106 70.0548 88.2008 70.1758" stroke="#263238" stroke-linecap="round" stroke-linejoin="round"></path><path d="M94.0794 65.9824L119.652 82.5458C119.807 82.6497 119.918 82.8063 119.966 82.9863C120.013 83.1663 119.993 83.3573 119.909 83.5235C119.86 83.6128 119.794 83.6915 119.714 83.755C119.634 83.8185 119.542 83.8655 119.444 83.8933C119.346 83.921 119.243 83.9289 119.141 83.9166C119.04 83.9043 118.942 83.8719 118.853 83.8214L92.5483 68.3426L94.0794 65.9824Z" fill="white" stroke="#263238" stroke-linecap="round" stroke-linejoin="round"></path><path d="M93.7994 66.5865C92.6482 69.3554 89.962 70.8868 87.8553 70.0046C85.7486 69.1224 84.9619 66.1626 86.1208 63.3785C87.2797 60.5944 89.9582 59.0782 92.0649 59.9604C94.1716 60.8426 94.9621 63.8177 93.7994 66.5865Z" fill="#8C8C8C" stroke="#263238" stroke-linecap="round" stroke-linejoin="round"></path><path d="M92.9667 66.2428C92.0572 68.412 89.9697 69.615 88.3081 68.9162C86.6466 68.2173 80.9327 62.7789 81.8384 60.6096C82.744 58.4404 89.9429 60.3652 91.6044 61.0565C93.266 61.7477 93.8838 64.0697 92.9667 66.2428Z" fill="white" stroke="#263238" stroke-linecap="round" stroke-linejoin="round"></path><path d="M146.816 102.249L148.892 101.286C149.365 101.265 149.83 101.411 150.205 101.699C150.826 102.18 152.001 102.936 152.001 102.936C152.001 102.936 154.349 103.074 154.418 103.417C154.487 103.761 153.037 104.181 152.83 104.181H151.295C151.295 104.181 153.436 105.285 153.643 105.422C153.85 105.56 156.824 106.454 156.41 106.729C155.995 107.004 153.229 106.935 152.607 107.072C151.99 107.167 151.366 107.213 150.742 107.21L148.394 105.079L146.732 103.288C146.732 103.288 146.195 102.661 146.816 102.249Z" fill="white" stroke="#373A33" stroke-linecap="round" stroke-linejoin="round"></path><path d="M94.709 77.5584C94.709 77.5584 94.5709 75.6985 94.5709 74.8048C94.5709 73.9112 94.0874 72.1926 93.8802 72.0551C93.6729 71.9176 91.5317 71.0927 90.9101 70.5275C90.2884 69.9622 89.5248 70.7337 89.8011 71.2149C90.0773 71.6961 91.6699 72.5898 91.6699 72.5898L91.2554 73.2085L89.7205 71.9023C89.7205 71.9023 88.1318 69.4276 87.7174 69.6338C87.3029 69.84 87.4411 70.1837 87.7174 70.6649C87.9937 71.1462 87.8555 74.2396 88.6153 74.8659C89.3751 75.4923 91.6583 76.2446 91.6583 76.2446L91.8656 77.9632C91.8656 77.9632 94.0068 78.1007 94.2831 78.1695C94.5594 78.2382 94.709 77.5584 94.709 77.5584Z" fill="white" stroke="#373A33" stroke-linecap="round" stroke-linejoin="round"></path><path d="M90.1462 80.1821L90.4225 78.3261C90.4225 78.3261 90.3535 77.7074 91.9575 77.4324C92.8766 77.2623 93.8229 77.3094 94.7204 77.5699C94.8186 77.6082 94.9034 77.6741 94.9647 77.7595C95.0261 77.8449 95.0611 77.9462 95.0657 78.0511C95.0534 78.7202 94.9841 79.3871 94.8585 80.0446C94.8585 80.0446 92.3604 79.0708 90.1462 80.1821Z" fill="white" stroke="#373A33" stroke-linecap="round" stroke-linejoin="round"></path><path d="M117.867 171.458V176.423C117.867 176.423 119.018 177 122.376 177C125.382 176.934 128.354 176.35 131.16 175.274C132.775 174.586 133.355 173.089 132.775 172.86C132.196 172.631 129.322 172.513 128.731 172.054C128.14 171.596 125.726 170.099 125.726 170.099C125.726 170.099 119.947 171.806 117.867 171.458Z" fill="white" stroke="#373A33" stroke-linecap="round" stroke-linejoin="round"></path><path d="M132.986 173.295C130.559 174.428 127.97 175.181 125.312 175.526C121.321 176.037 118.861 175.598 117.86 175.338V176.423C117.86 176.423 119.011 177 122.369 177C125.375 176.934 128.346 176.349 131.152 175.273C132.319 174.762 132.94 173.853 132.986 173.295Z" fill="white" stroke="#373A33" stroke-linecap="round" stroke-linejoin="round"></path><path d="M119.602 123.961L120.181 125.572C120.181 125.572 122.607 130.155 124.341 133.508C126.076 136.861 127.921 143.973 128.501 144.664C129.08 145.355 128.961 146.272 128.616 147.307C128.27 148.342 125.496 166.402 125.496 166.86C125.496 167.319 125.266 167.319 125.611 167.895C125.957 168.472 126.076 170.309 126.076 170.309C125.315 171.042 124.346 171.524 123.301 171.692C121.452 172.035 117.867 172.035 117.867 172.035C117.867 172.035 117.407 169.851 117.522 169.507C117.637 169.163 117.986 166.975 117.986 166.975C117.986 166.975 119.138 161.338 118.907 158.466C118.677 155.594 119.257 149.147 119.487 148.46C119.647 147.707 119.724 146.938 119.717 146.169L119.026 144.904V143.961C119.026 143.961 113.477 138.324 111.283 136.14C109.088 133.955 106.893 131.308 106.893 131.308C106.893 131.308 104.348 142.582 103.654 144.996C102.959 147.41 102.614 148.433 102.153 149.136C101.693 149.839 96.9538 156.037 95.2194 158.569C93.4849 161.101 90.8294 165.585 90.8294 165.585C90.8225 166.238 90.8609 166.892 90.9445 167.54C91.0597 167.999 89.7933 169.725 89.7933 169.725L89.329 170.183C89.329 170.183 86.5546 167.422 85.5147 167.193C84.4748 166.964 82.2798 167.307 82.2798 167.307C82.2798 167.307 83.6689 163.515 84.0143 162.724C84.3596 161.934 87.5945 153.753 88.5193 152.142C89.4441 150.53 90.1387 147.31 91.7581 146.031C93.3774 144.752 95.2117 143.27 95.2117 143.27L94.9814 130.392L94.7512 126.825C94.5243 125.922 94.4071 124.995 94.402 124.064V121.772C94.402 121.772 104.92 124.186 110.135 123.957C115.35 123.728 118.455 122.349 118.455 122.349L119.602 123.961Z" fill="#373A33" stroke="#373A33" stroke-linecap="round" stroke-linejoin="round"></path><path d="M122.491 88.0113C122.491 88.0113 116.478 85.399 113.301 85.399C110.124 85.399 108.393 85.4678 105.005 85.6052C101.616 85.7427 99.6322 86.7739 99.6322 86.7739L94.6437 88.4237L95.0543 79.4183C94.0429 79.1409 92.9854 79.0708 91.946 79.2121C91.0673 79.3746 90.2621 79.8074 89.6436 80.4495C89.6436 80.4495 87.7786 92.6935 87.8477 93.7934C87.9168 94.8933 89.3826 95.0995 89.3826 95.0995L100.649 94.8933L99.8202 107.412L91.3781 121.994C91.3781 121.994 91.4471 124.262 98.3582 126.534C105.269 128.807 113.769 128.062 116.394 127.359C119.019 126.657 123.22 123.578 123.566 123.097C123.911 122.616 123.566 120.137 123.566 119.106C123.566 118.075 121.839 108.306 122.115 107.825C122.392 107.344 123.911 100.878 123.911 100.878C123.911 100.878 137.941 109.956 138.769 109.818C139.598 109.681 148.029 105.556 148.24 105.419C148.451 105.281 149.007 104.525 148.171 103.284C147.863 102.856 147.461 102.503 146.995 102.253C146.53 102.003 146.013 101.862 145.485 101.84C145.07 101.84 139.403 102.321 139.403 102.321C139.403 102.321 132.303 96.0581 132.108 95.7144C131.912 95.3707 130.795 92.4834 130.312 91.7273C129.828 90.9711 122.491 88.0113 122.491 88.0113Z" fill="#8B9E6E" stroke="#373A33" stroke-linecap="round" stroke-linejoin="round"></path><path d="M100.653 94.8896L100.446 89.73L100.653 94.8896Z" stroke="#263238" stroke-linecap="round" stroke-linejoin="round"></path><path d="M122.131 107.821C122.131 107.821 121.152 114.428 120.715 116.468C120.277 118.507 119.69 123.529 119.69 123.529C120.422 123.252 121.183 123.057 121.958 122.949C123.109 122.804 123.566 123.094 123.566 123.094C123.566 123.094 124.445 120.982 123.566 117.338C122.687 113.695 122.131 107.821 122.131 107.821Z" fill="#758168" stroke="#373A33" stroke-linecap="round" stroke-linejoin="round"></path><path d="M89.325 170.195C89.325 170.195 89.7893 172.379 90.2498 172.612C90.7103 172.845 92.9091 173.299 93.1393 173.876C93.3696 174.453 91.0595 175.484 89.5552 175.717C88.051 175.95 85.3955 175.369 85.0502 175.14C84.7048 174.911 83.899 173.762 82.8552 173.414C81.8114 173.066 80.5528 172.612 80.7754 171.23C80.9979 169.847 82.2758 167.319 82.2758 167.319C83.8264 166.846 85.4891 166.887 87.0149 167.433C89.5552 168.354 89.325 170.195 89.325 170.195Z" fill="white" stroke="#373A33" stroke-linecap="round" stroke-linejoin="round"></path><path d="M89.5553 175.717C91.0596 175.484 93.3696 174.449 93.1394 173.876C93.115 173.823 93.0812 173.775 93.0396 173.735C91.9153 174.117 90.5338 174.327 89.2637 173.628C87.7057 172.765 87.1838 170.867 85.104 170.191C83.8952 169.79 82.2758 169.858 81.1323 169.981C80.9779 170.391 80.8585 170.814 80.7754 171.245C80.5414 172.627 81.8154 173.086 82.8553 173.429C83.8952 173.773 84.7049 174.926 85.0503 175.156C85.3956 175.385 88.0549 175.946 89.5553 175.717Z" fill="white" stroke="#373A33" stroke-linecap="round" stroke-linejoin="round"></path><path d="M88.8645 174.895C87.5905 174.319 86.4355 172.825 84.5859 171.676C82.8974 170.622 81.1322 171.779 80.8214 171.985C81.0862 172.787 82.0379 173.131 82.8552 173.398C83.8951 173.746 84.7048 174.895 85.0502 175.124C85.3955 175.354 88.0548 175.93 89.5552 175.701C89.8611 175.651 90.1635 175.582 90.4609 175.495C89.9177 175.325 89.3848 175.125 88.8645 174.895Z" fill="#373A33" stroke="#373A33" stroke-linecap="round" stroke-linejoin="round"></path><path d="M123.665 86.1553L121.593 87.5989C121.593 87.5989 118.907 85.8116 117.031 85.4679C115.154 85.1242 114.199 85.0554 114.199 85.0554L115.649 82.5081C116.71 81.7476 117.526 80.6968 117.998 79.4834C118.619 77.6273 119.241 76.8711 120.626 77.5738C122.012 78.2765 122.545 81.011 122.545 82.7296C122.545 84.4482 123.665 86.1553 123.665 86.1553Z" fill="white" stroke="#263238" stroke-linecap="round" stroke-linejoin="round"></path><path d="M124.84 73.4989C124.84 73.4989 126.014 75.2175 126.152 75.84C126.29 76.4625 125.669 77.6961 125.669 77.6961C125.669 77.6961 127.054 79.6896 127.123 80.1708C127.192 80.652 126.29 81.5457 126.29 81.5457C126.29 81.5457 126.498 83.5431 126.778 84.0243C127.058 84.5055 127.33 85.193 126.985 85.8116C126.64 86.4303 126.152 86.8428 124.683 87.049C123.213 87.2553 122.058 86.5678 121.781 85.1395C121.505 83.7111 121.505 80.5986 121.298 80.1747C121.091 79.7507 120.124 78.7998 119.64 79.556C119.157 80.3121 119.502 81.0836 119.847 81.7558C120.059 82.1706 120.398 82.5076 120.814 82.7182L119.28 83.482C118.361 83.877 117.33 83.9259 116.378 83.6195C116.039 83.4913 115.729 83.2973 115.465 83.0488C115.202 82.8004 114.99 82.5024 114.844 82.172C114.774 81.9658 114.076 80.2625 113.877 79.9035C113.677 79.5445 112.215 77.4975 112.146 75.0876C112.077 72.6778 114.982 69.9319 118.712 69.1757C122.441 68.4195 124.172 70.0693 125.001 70.1381C125.83 70.2068 125.001 69.4507 125.692 69.9319C126.382 70.4131 126.567 73.0864 124.84 73.4989Z" fill="white" stroke="#373A33" stroke-linecap="round" stroke-linejoin="round"></path><path d="M126.29 81.5454C126.29 81.5454 126.367 81.469 126.474 81.3507C126.194 81.3888 125.354 81.5034 124.84 81.6142C124.218 81.7517 123.942 83.6116 123.389 83.1418C122.837 82.6721 122.56 78.6009 122.422 78.3947C122.284 78.1885 122.898 77.5086 122.898 77.5086C122.898 77.5086 123.865 76.2025 123.865 75.6488C123.865 75.095 122.898 74.4801 123.243 74.3426C123.589 74.2051 124.832 73.5177 124.832 73.5177C126.559 73.1052 126.421 70.4242 125.73 69.943C125.039 69.4618 125.868 70.218 125.039 70.1493C124.21 70.0805 122.484 68.4269 118.75 69.1868C115.016 69.9468 112.115 72.6928 112.184 75.0988C112.253 77.5048 113.719 79.571 113.915 79.9147C114.11 80.2584 114.813 81.977 114.882 82.1832C115.029 82.5135 115.24 82.8116 115.503 83.06C115.767 83.3085 116.077 83.5024 116.417 83.6307C117.368 83.937 118.4 83.8882 119.318 83.4932L120.853 82.7293C120.436 82.5188 120.097 82.1817 119.886 81.7669C119.54 81.0795 119.191 80.3233 119.678 79.5671C120.166 78.811 121.129 79.7734 121.336 80.1858C121.543 80.5983 121.543 83.6956 121.82 85.1507C122.096 86.6057 123.27 87.2817 124.721 87.0602C126.171 86.8387 126.639 86.4415 127.023 85.8228C127.407 85.2041 127.092 84.5167 126.816 84.0355C126.54 83.5543 126.29 81.5454 126.29 81.5454Z" fill="#373A33" stroke="#373A33" stroke-linecap="round" stroke-linejoin="round"></path><path d="M113.305 85.3992C116.482 85.3992 122.495 88.0115 122.495 88.0115L122.725 88.107C122.664 87.7978 122.533 87.5065 122.342 87.2553C122.134 87.1178 121.029 85.5367 118.953 84.7118C117.594 84.1521 116.142 83.849 114.671 83.8181C114.183 83.8181 112.79 85.0937 112.46 85.3992H113.305Z" fill="#758168" stroke="#373A33" stroke-linecap="round" stroke-linejoin="round"></path></svg>